<svg id="Capa_1" enable-background="new 0 0 512 512" height="512" viewBox="0 0 512 512" width="512" xmlns="http://www.w3.org/2000/svg"><g><path d="m472.71 121.666-216.71 43.58-216.71-43.58c-7.41-3.71-10.41-12.72-6.71-20.13l29.55-59.08c2.67-5.34 8.26-8.59 14.21-8.27 101.25 5.39 173.97 33.5 179.66 35 2.98-.79 81.43-29.77 179.66-35 5.96-.32 11.54 2.93 14.21 8.27l29.55 59.08c3.7 7.41.7 16.42-6.71 20.13z" fill="#fff7cc"/><path d="m472.71 121.666-216.71 43.58v-96.06c2.98-.79 81.43-29.77 179.66-35 5.96-.32 11.54 2.93 14.21 8.27l29.55 59.08c3.7 7.41.7 16.42-6.71 20.13z" fill="#ffe6b3"/><g><g><g><g><path d="m211 117.816c-55.17-16.32-112.21-24.57-169.87-24.57h-26.13c-8.28 0-15 6.72-15 15v300c0 8.28 6.72 15 15 15h26.13c58.66 0 116.65 8.99 172.5 26.75 2.55.81 5.09 1.63 7.63 2.48 9.7 3.23 19.74-4 19.74-14.23v-300z" fill="#ff641a"/></g></g></g></g><g><g><g><g><path d="m497 93.246h-26.13c-64.514 0-128.103 10.299-189.61 30.77l-10.26 14.23v300c0 10.24 10.05 17.46 19.74 14.23 2.55-.85 5.1-1.68 7.65-2.48 55.84-17.76 113.82-26.75 172.48-26.75h26.13c8.28 0 15-6.72 15-15v-300c0-8.28-6.72-15-15-15z" fill="#f03800"/></g></g></g></g><g><g><path d="m281.26 124.016c-5.13 1.71-8.86 6-9.94 11.14-.01.05-.02.1-.03.15 0 .02-.01.05-.02.07-1.87 9.19-9.11 12.46-15.27 12.46s-13.4-3.27-15.27-12.46c-.01-.02-.02-.05-.02-.07-.04-.19-.08-.39-.13-.6-1.2-4.94-4.86-9.03-9.84-10.69-6.55-2.18-13.13-4.25-19.74-6.2v320.43c0 3.52.89 7.59 2.63 11.75 5.61 13.43 20.11 27.84 42.37 27.84 22.27 0 36.78-14.38 42.39-27.84 1.73-4.15 2.61-8.22 2.61-11.75v-320.43c-6.61 1.95-13.19 4.02-19.74 6.2z" fill="#613d5c"/></g></g><path d="m301 117.816v320.43c0 3.53-.88 7.6-2.61 11.75-5.61 13.46-20.12 27.84-42.39 27.84v-330c6.16 0 13.4-3.27 15.27-12.46.01-.02.02-.05.02-.07.01-.05.02-.1.03-.15 1.08-5.14 4.81-9.43 9.94-11.14 6.55-2.18 13.13-4.25 19.74-6.2z" fill="#4b2746"/></g></svg>