<svg id="Capa_1" enable-background="new 0 0 512 512" height="512" viewBox="0 0 512 512" width="512" xmlns="http://www.w3.org/2000/svg"><g><path d="m376 497c0 8.28-6.72 15-15 15h-210c-8.28 0-15-6.72-15-15s6.72-15 15-15c16.54 0 30-13.46 30-30v-75c0-8.28 6.72-15 15-15h120c8.28 0 15 6.72 15 15v75c0 16.54 13.46 30 30 30 8.28 0 15 6.72 15 15z" fill="#f0f7ff"/><path d="m376 497c0 8.28-6.72 15-15 15h-105v-150h60c8.28 0 15 6.72 15 15v75c0 16.54 13.46 30 30 30 8.28 0 15 6.72 15 15z" fill="#dfe7f4"/><g><path d="m497 0h-482c-8.28 0-15 6.72-15 15v362c0 8.28 6.72 15 15 15h482c8.28 0 15-6.72 15-15v-362c0-8.28-6.72-15-15-15z" fill="#4b2746"/><path d="m512 15v362c0 8.28-6.72 15-15 15h-241v-392h241c8.28 0 15 6.72 15 15z" fill="#4b2746"/><path d="m30 30h452v332h-452z" fill="#fabe2c"/><path d="m256 30h226v332h-226z" fill="#ff9f00"/></g><g><path d="m382.71 93.58c-7.03-3.52-14.29-6.44-21.71-8.77l-105 5.64-105-5.64c-7.42 2.33-14.68 5.25-21.71 8.77-5.08 2.54-8.29 7.74-8.29 13.42v180c0 11.13 11.74 18.4 21.71 13.42 33.37-16.69 73.21-16.69 106.58 0 2.11 1.05 4.42 1.58 6.71 1.58 2.32 0 4.62-.54 6.71-1.58 33.37-16.69 73.21-16.69 106.58 0 9.96 4.97 21.71-2.27 21.71-13.42v-180c0-5.68-3.21-10.88-8.29-13.42z" fill="#613d5c"/><path d="m391 107v180c0 11.15-11.75 18.39-21.71 13.42-33.37-16.69-73.21-16.69-106.58 0-2.09 1.04-4.39 1.58-6.71 1.58v-211.55l105-5.64c7.42 2.33 14.68 5.25 21.71 8.77 5.08 2.54 8.29 7.74 8.29 13.42z" fill="#4b2746"/><path d="m361 84.81v180.01c-14.49-4.55-29.73-6.92-45-6.92-20.63 0-41.22 4.32-60 12.54-18.74-8.21-39.35-12.54-60-12.54-15.26 0-30.5 2.37-45 6.92v-180.01c34.29-10.79 71.84-8.9 105 5.64 33.16-14.54 70.71-16.43 105-5.64z" fill="#fff7cc"/><path d="m361 84.81v180.01c-14.49-4.55-29.73-6.92-45-6.92-20.63 0-41.22 4.32-60 12.54v-179.99c33.16-14.54 70.71-16.43 105-5.64z" fill="#ffe6b3"/></g></g></svg>