<svg id="Capa_1" enable-background="new 0 0 512 512" height="512" viewBox="0 0 512 512" width="512" xmlns="http://www.w3.org/2000/svg"><g><path d="m512 75.992v330c0 8.28-6.72 15-15 15h-482c-8.28 0-15-6.72-15-15v-330c0-8.28 6.72-15 15-15h482c8.28 0 15 6.72 15 15z" fill="#613d5c"/><path d="m512 75.992v330c0 8.28-6.72 15-15 15h-241v-360h241c8.28 0 15 6.72 15 15z" fill="#4b2746"/><path d="m407 330.992h-60c-8.284 0-15 6.716-15 15v120c0 13.325 16.171 20.043 25.606 10.607l19.394-19.394 19.394 19.394c9.422 9.424 25.606 2.737 25.606-10.607v-120c0-8.284-6.716-15-15-15z" fill="#ff641a"/><path d="m452 45.992v300c0 8.28-6.72 15-15 15h-121c-16.03 0-30.5 8.43-38.71 22.54-2.69 4.62-7.63 7.46-12.97 7.46h-16.64c-5.34 0-10.28-2.84-12.97-7.46-8.21-14.11-22.68-22.54-38.71-22.54h-121c-8.28 0-15-6.72-15-15v-300c0-8.28 6.72-15 15-15h121c24.51 0 46.31 11.82 60 30.05 13.69-18.23 35.49-30.05 60-30.05h121c8.28 0 15 6.72 15 15z" fill="#fff7cc"/><path d="m452 45.992v300c0 8.28-6.72 15-15 15h-121c-16.03 0-30.5 8.43-38.71 22.54-2.69 4.62-7.63 7.46-12.97 7.46h-8.32v-329.95c13.69-18.23 35.49-30.05 60-30.05h121c8.28 0 15 6.72 15 15z" fill="#ffe6b3"/></g></svg>