<svg id="Capa_1" enable-background="new 0 0 512 512" height="512" viewBox="0 0 512 512" width="512" xmlns="http://www.w3.org/2000/svg"><g><path d="m436 105v197l-30 22.5-30-22.5-15-100 15-82v-15l30-15z" fill="#ffe6b3"/><path d="m436 105v197l-30 22.5v-234.5z" fill="#ffca80"/><path d="m436 302v75h-60l-15-46 15-29z" fill="#613d5c"/><path d="m406 302h30v75h-30z" fill="#4b2746"/><path d="m436 60v45h-60v-45c0-16.54 13.46-30 30-30s30 13.46 30 30z" fill="#613d5c"/><path d="m436 60v45h-30v-75c16.54 0 30 13.46 30 30z" fill="#4b2746"/><path d="m299 211-13 91-61 15.5-59-15.5-15-91 15-91 59-11.5 61 11.5z" fill="#65d6a9"/><path d="m299 211-13 91-61 15.5v-209l61 11.5z" fill="#26bfa6"/><path d="m286 30v60l-61 15-59-15v-60c0-16.54 13.46-30 30-30h60c16.54 0 30 13.46 30 30z" fill="#613d5c"/><path d="m286 30v60l-61 15c0-15.777 0-89.535 0-105h31c16.54 0 30 13.46 30 30z" fill="#4b2746"/><path d="m166 90h120v30h-120z" fill="#ffe6b3"/><path d="m225 90h61v30h-61z" fill="#ffca80"/><path d="m301 332-15 45h-120l-15-45 74-8.39c86.178 9.514 75 8.28 76 8.39z" fill="#613d5c"/><path d="m301 332-15 45h-61v-53.39c86.178 9.514 75 8.28 76 8.39z" fill="#4b2746"/><path d="m301 332h-150l15-30h120z" fill="#ffe6b3"/><path d="m301 332h-76v-30h61z" fill="#ffca80"/><path d="m376 165v137l-45 21.5-45-21.5v-137l45-13z" fill="#ff641a"/><path d="m376 165v137l-45 21.5v-171.5z" fill="#f03800"/><path d="m286 302h90v75h-90z" fill="#613d5c"/><path d="m331 302h45v75h-45z" fill="#4b2746"/><path d="m166 135v167l-45 15.5-45-15.5v-167l45-11z" fill="#ffd400"/><path d="m166 135v167l-45 15.5v-193.5z" fill="#fabe2c"/><path d="m166 90v45h-90v-45c0-16.54 13.46-30 30-30h30c16.54 0 30 13.46 30 30z" fill="#613d5c"/><path d="m166 90v45h-45v-75h15c16.54 0 30 13.46 30 30z" fill="#4b2746"/><path d="m376 120v45h-90v-45c0-16.54 13.46-30 30-30h30c16.54 0 30 13.46 30 30z" fill="#613d5c"/><path d="m376 120v45h-45v-75h15c16.54 0 30 13.46 30 30z" fill="#4b2746"/><path d="m136 422h-60c-8.284 0-15 6.716-15 15v60c0 8.284 6.716 15 15 15h60c8.284 0 15-6.716 15-15v-60c0-8.284-6.716-15-15-15z" fill="#fabe2c"/><path d="m436 422h-60c-8.284 0-15 6.716-15 15v60c0 8.284 6.716 15 15 15h60c8.284 0 15-6.716 15-15v-60c0-8.284-6.716-15-15-15z" fill="#ff9f00"/><path d="m76 302h90v75h-90z" fill="#613d5c"/><path d="m121 302h45v75h-45z" fill="#4b2746"/><path d="m497 362h-482c-8.28 0-15 6.72-15 15v60c0 8.28 6.72 15 15 15h482c8.28 0 15-6.72 15-15v-60c0-8.28-6.72-15-15-15z" fill="#ffd400"/><path d="m512 377v60c0 8.28-6.72 15-15 15h-241v-90h241c8.28 0 15 6.72 15 15z" fill="#fabe2c"/></g></svg>