<svg id="Capa_1" enable-background="new 0 0 512 512" height="512" viewBox="0 0 512 512" width="512" xmlns="http://www.w3.org/2000/svg"><g><g><path d="m256 151c-8.284 0-15-6.716-15-15v-30c0-41.355 33.645-75 75-75 8.284 0 15 6.716 15 15s-6.716 15-15 15c-24.813 0-45 20.187-45 45v30c0 8.284-6.716 15-15 15z" fill="#613d5c"/></g><g><path d="m342.07 100.81c-28.16-10.99-60.86-5.06-86.07 14.92-25.21-19.98-57.91-25.91-86.07-14.92-39.91 15.57-48.93 52.37-48.93 95.19 0 113.69 59.76 165 135 165 75.36 0 135-51.47 135-165 0-42.8-9.01-79.62-48.93-95.19z" fill="#ff641a"/></g><path d="m391 196c0 113.53-59.64 165-135 165v-245.27c25.21-19.98 57.91-25.91 86.07-14.92 39.92 15.57 48.93 52.39 48.93 95.19z" fill="#f03800"/><g><g><path d="m497 451h-24.42l-64.58-45 64.58-45h24.42c8.28 0 15-6.72 15-15s-6.72-15-15-15h-422c-41.35 0-75 33.65-75 75s33.65 75 75 75h422c8.28 0 15-6.72 15-15s-6.72-15-15-15z" fill="#613d5c"/><path d="m512 466c0 8.28-6.72 15-15 15h-241v-150h241c8.28 0 15 6.72 15 15s-6.72 15-15 15h-24.42l-64.58 45 64.58 45h24.42c8.28 0 15 6.72 15 15z" fill="#4b2746"/><path d="m472.58 451h-397.58c-24.81 0-45-20.19-45-45s20.19-45 45-45h397.58c-21.93 25.93-21.92 64.08 0 90z" fill="#fff7cc"/><path d="m472.58 451h-216.58v-90h216.58c-21.93 25.93-21.92 64.08 0 90z" fill="#ffe6b3"/></g><g><g><g><path d="m361 406c0 8.28-6.72 15-15 15h-210c-8.28 0-15-6.72-15-15s6.72-15 15-15h210c8.28 0 15 6.72 15 15z" fill="#ffe6b3"/></g></g></g><path d="m361 406c0 8.28-6.72 15-15 15h-90v-30h90c8.28 0 15 6.72 15 15z" fill="#ffca80"/></g></g></svg>