<svg id="Capa_1" enable-background="new 0 0 512 512" height="512" viewBox="0 0 512 512" width="512" xmlns="http://www.w3.org/2000/svg"><g><g><g><g><path d="m421 278.5h-45c-8.284 0-15-6.716-15-15s6.716-15 15-15h45c16.542 0 30-13.458 30-30s-13.458-30-30-30h-44.999c-8.284 0-15-6.716-15-15s6.716-15 15-15h44.999c33.084 0 60 26.916 60 60s-26.916 60-60 60z" fill="#ff9f00"/></g></g></g><g><path d="m170.394 124.107c-5.858-5.858-5.858-15.355 0-21.213l15-15c2.422-2.422 2.422-6.364 0-8.787-14.12-14.12-14.12-37.094 0-51.213l15-15c5.857-5.858 15.355-5.858 21.213 0s5.858 15.355 0 21.213l-15 15c-2.422 2.422-2.422 6.364 0 8.787 14.12 14.12 14.12 37.094 0 51.213l-15 15c-5.857 5.857-15.356 5.858-21.213 0z" fill="#fff7cc"/></g><g><path d="m266.61 49.11c-2.43 2.42-2.43 6.36 0 8.78 14.12 14.12 14.12 37.1 0 51.22l-15 15c-5.86 5.85-15.36 5.85-21.22 0-5.85-5.86-5.85-15.36 0-21.22l15-15c2.43-2.42 2.43-6.36 0-8.78-14.12-14.12-14.12-37.1 0-51.22l10.61-10.61 4.39-4.39c5.86-5.85 15.36-5.85 21.22 0 5.85 5.86 5.85 15.36 0 21.22z" fill="#fff7cc"/></g><path d="m266.61 49.11c-2.43 2.42-2.43 6.36 0 8.78 14.12 14.12 14.12 37.1 0 51.22l-10.61 10.61v-102.44l4.39-4.39c5.86-5.85 15.36-5.85 21.22 0 5.85 5.86 5.85 15.36 0 21.22z" fill="#ffe6b3"/><g><g><g><path d="m290.394 124.107c-5.858-5.858-5.858-15.355 0-21.213l15-15c2.423-2.422 2.423-6.364 0-8.787-14.12-14.12-14.12-37.094 0-51.213l15-15c5.857-5.858 15.355-5.858 21.213 0s5.858 15.355 0 21.213l-15 15c-2.423 2.422-2.423 6.364 0 8.787 14.12 14.12 14.12 37.094 0 51.213l-15 15c-5.857 5.857-15.356 5.858-21.213 0z" fill="#ffe6b3"/></g></g></g><g><g><g><g><path d="m376 158.5h-240c-8.28 0-15 6.72-15 15v90c0 75.11 59.97 105 135 105s135-29.85 135-105v-90c0-8.28-6.72-15-15-15z" fill="#ffd400"/></g></g></g></g><path d="m391 173.5v90c0 75.15-59.97 105-135 105v-210h120c8.28 0 15 6.72 15 15z" fill="#fabe2c"/><g><g><path d="m497 473.5h-24.42l-64.58-45 64.58-45h24.42c8.28 0 15-6.72 15-15s-6.72-15-15-15h-422c-41.35 0-75 33.65-75 75s33.65 75 75 75h422c8.28 0 15-6.72 15-15s-6.72-15-15-15z" fill="#613d5c"/><path d="m512 488.5c0 8.28-6.72 15-15 15h-241v-150h241c8.28 0 15 6.72 15 15s-6.72 15-15 15h-24.42l-64.58 45 64.58 45h24.42c8.28 0 15 6.72 15 15z" fill="#4b2746"/><path d="m472.58 473.5h-397.58c-24.81 0-45-20.19-45-45s20.19-45 45-45h397.58c-21.93 25.93-21.92 64.08 0 90z" fill="#fff7cc"/><path d="m472.58 473.5h-216.58v-90h216.58c-21.93 25.93-21.92 64.08 0 90z" fill="#ffe6b3"/></g><g><g><g><path d="m361 428.5c0 8.28-6.72 15-15 15h-210c-8.28 0-15-6.72-15-15s6.72-15 15-15h210c8.28 0 15 6.72 15 15z" fill="#ffe6b3"/></g></g></g><path d="m361 428.5c0 8.28-6.72 15-15 15h-90v-30h90c8.28 0 15 6.72 15 15z" fill="#ffca80"/></g></g></svg>