<svg id="Capa_1" enable-background="new 0 0 512 512" height="512" viewBox="0 0 512 512" width="512" xmlns="http://www.w3.org/2000/svg"><g><g><path d="m271 306.08v54.92c0 8.28-6.72 15-15 15s-15-6.72-15-15v-54.92c0-8.29 6.72-15 15-15s15 6.71 15 15z" fill="#f0f7ff"/></g><path d="m271 306.08v54.92c0 8.28-6.72 15-15 15v-84.92c8.28 0 15 6.71 15 15z" fill="#dfe7f4"/><g><path d="m181.684 103.115-42.426-42.427c-5.858-5.858-5.858-15.355 0-21.213 5.857-5.857 15.355-5.859 21.213 0l42.426 42.427c5.858 5.858 5.858 15.355 0 21.213-5.858 5.857-15.356 5.859-21.213 0z" fill="#f0f7ff"/></g><g><g><g><path d="m351.39 272.821-42.427-42.427c-5.858-5.858-5.858-15.355 0-21.213 5.857-5.857 15.355-5.858 21.213 0l42.427 42.427c5.858 5.858 5.858 15.355 0 21.213-5.858 5.857-15.356 5.858-21.213 0z" fill="#dfe7f4"/></g></g></g><g><path d="m393.59 247.15c-29.86 45.14-80.52 73.91-137.59 73.93h-.07c-91.28 0-164.93-73.64-164.93-164.93 0-57.03 28.71-107.75 73.93-137.66 6.91-4.57 16.22-2.67 20.79 4.23 4.57 6.91 2.67 16.22-4.24 20.79-37.03 24.49-60.48 66-60.48 112.64 0 74.7 60.22 134.93 134.93 134.93h.07c46.56-.02 88.05-23.43 112.57-60.48 4.57-6.91 13.87-8.81 20.78-4.24s8.81 13.88 4.24 20.79z" fill="#f0f7ff"/></g><path d="m393.59 247.15c-29.86 45.14-80.52 73.91-137.59 73.93v-30c46.56-.02 88.05-23.43 112.57-60.48 4.57-6.91 13.87-8.81 20.78-4.24s8.81 13.88 4.24 20.79z" fill="#dfe7f4"/><g><g><g><g><g><path d="m360.93 156.15c0-57.88-47.06-104.96-104.93-105h-.07c-39.87 0-74.51 22.16-92.3 54.85l77.37 15-88.13 15c-1.28 6.52-1.94 13.26-1.94 20.15 0 57.9 47.1 105 105 105h.07c43.9-.03 81.45-26.93 97.11-65.15l-82.11-15 89.47-15c.31-3.24.46-6.53.46-9.85z" fill="#65d6a9"/></g></g></g></g></g><path d="m360.47 166-89.47 15 82.11 15c-15.66 38.22-53.21 65.12-97.11 65.15v-210c57.87.04 104.93 47.12 104.93 105 0 3.32-.15 6.61-.46 9.85z" fill="#26bfa6"/><g><path d="m241 121c0 8.28-6.72 15-15 15h-73.13c2.06-10.67 5.74-20.75 10.76-30h62.37c8.28 0 15 6.72 15 15z" fill="#26bfa6"/></g><g><path d="m360.47 166c-.97 10.53-3.5 20.61-7.36 30h-67.11c-8.28 0-15-6.72-15-15s6.72-15 15-15z" fill="#149084"/></g><g><g><path d="m497 466h-24.42l-64.58-45 64.58-45h24.42c8.28 0 15-6.72 15-15s-6.72-15-15-15h-422c-41.35 0-75 33.65-75 75s33.65 75 75 75h422c8.28 0 15-6.72 15-15s-6.72-15-15-15z" fill="#613d5c"/><path d="m512 481c0 8.28-6.72 15-15 15h-241v-150h241c8.28 0 15 6.72 15 15s-6.72 15-15 15h-24.42l-64.58 45 64.58 45h24.42c8.28 0 15 6.72 15 15z" fill="#4b2746"/><path d="m472.58 466h-397.58c-24.81 0-45-20.19-45-45s20.19-45 45-45h397.58c-21.93 25.93-21.92 64.08 0 90z" fill="#fff7cc"/><path d="m472.58 466h-216.58v-90h216.58c-21.93 25.93-21.92 64.08 0 90z" fill="#ffe6b3"/></g><g><g><g><path d="m361 421c0 8.28-6.72 15-15 15h-210c-8.28 0-15-6.72-15-15s6.72-15 15-15h210c8.28 0 15 6.72 15 15z" fill="#ffe6b3"/></g></g></g><path d="m361 421c0 8.28-6.72 15-15 15h-90v-30h90c8.28 0 15 6.72 15 15z" fill="#ffca80"/></g><g><g><path d="m497 466h-24.42l-64.58-45 64.58-45h24.42c8.28 0 15-6.72 15-15s-6.72-15-15-15h-422c-41.35 0-75 33.65-75 75s33.65 75 75 75h422c8.28 0 15-6.72 15-15s-6.72-15-15-15z" fill="#613d5c"/><path d="m512 481c0 8.28-6.72 15-15 15h-241v-150h241c8.28 0 15 6.72 15 15s-6.72 15-15 15h-24.42l-64.58 45 64.58 45h24.42c8.28 0 15 6.72 15 15z" fill="#4b2746"/><path d="m472.58 466h-397.58c-24.81 0-45-20.19-45-45s20.19-45 45-45h397.58c-21.93 25.93-21.92 64.08 0 90z" fill="#fff7cc"/><path d="m472.58 466h-216.58v-90h216.58c-21.93 25.93-21.92 64.08 0 90z" fill="#ffe6b3"/></g><g><g><g><path d="m361 421c0 8.28-6.72 15-15 15h-210c-8.28 0-15-6.72-15-15s6.72-15 15-15h210c8.28 0 15 6.72 15 15z" fill="#ffe6b3"/></g></g></g><path d="m361 421c0 8.28-6.72 15-15 15h-90v-30h90c8.28 0 15 6.72 15 15z" fill="#ffca80"/></g></g></svg>