<svg id="Capa_1" enable-background="new 0 0 512 512" height="512" viewBox="0 0 512 512" width="512" xmlns="http://www.w3.org/2000/svg"><g><g><g><g><path d="m466 166h-31.5c-8.284 0-15-6.716-15-15s6.716-15 15-15h31.5c8.284 0 15 6.716 15 15s-6.716 15-15 15z" fill="#351b33"/></g></g></g><g><path d="m77.5 166h-31.5c-8.284 0-15-6.716-15-15s6.716-15 15-15h31.5c8.284 0 15 6.716 15 15s-6.716 15-15 15z" fill="#4b2746"/></g><g><g><g><path d="m304.96 143.22c-5.15 6.51-14.59 7.59-21.08 2.46-8.17-6.47-18.03-9.7-27.88-9.69-9.87 0-19.72 3.23-27.88 9.69-6.5 5.14-15.93 4.04-21.08-2.46-5.13-6.5-4.03-15.93 2.46-21.07 13.56-10.72 30.01-16.13 46.5-16.14 16.41-.01 32.85 5.34 46.5 16.14 6.49 5.14 7.59 14.57 2.46 21.07z" fill="#4b2746"/></g></g></g><path d="m304.96 143.22c-5.15 6.51-14.59 7.59-21.08 2.46-8.17-6.47-18.03-9.7-27.88-9.69v-29.98c16.41-.01 32.85 5.34 46.5 16.14 6.49 5.14 7.59 14.57 2.46 21.07z" fill="#351b33"/><g><path d="m151 256c-49.626 0-90-40.374-90-90s40.374-90 90-90 90 40.374 90 90-40.374 90-90 90z" fill="#613d5c"/><circle cx="151" cy="166" fill="#fff7cc" r="60"/></g><g><path d="m361 256c-49.626 0-90-40.374-90-90s40.374-90 90-90 90 40.374 90 90-40.374 90-90 90z" fill="#4b2746"/><circle cx="361" cy="166" fill="#ffe6b3" r="60"/></g><g><g><path d="m497 406h-24.42l-64.58-45 64.58-45h24.42c8.28 0 15-6.72 15-15s-6.72-15-15-15h-422c-41.35 0-75 33.65-75 75s33.65 75 75 75h422c8.28 0 15-6.72 15-15s-6.72-15-15-15z" fill="#613d5c"/><path d="m512 421c0 8.28-6.72 15-15 15h-241v-150h241c8.28 0 15 6.72 15 15s-6.72 15-15 15h-24.42l-64.58 45 64.58 45h24.42c8.28 0 15 6.72 15 15z" fill="#4b2746"/><path d="m472.58 406h-397.58c-24.81 0-45-20.19-45-45s20.19-45 45-45h397.58c-21.93 25.93-21.92 64.08 0 90z" fill="#fff7cc"/><path d="m472.58 406h-216.58v-90h216.58c-21.93 25.93-21.92 64.08 0 90z" fill="#ffe6b3"/></g><g><g><g><path d="m361 361c0 8.28-6.72 15-15 15h-210c-8.28 0-15-6.72-15-15s6.72-15 15-15h210c8.28 0 15 6.72 15 15z" fill="#ffe6b3"/></g></g></g><path d="m361 361c0 8.28-6.72 15-15 15h-90v-30h90c8.28 0 15 6.72 15 15z" fill="#ffca80"/></g></g></svg>