<svg id="Capa_1" enable-background="new 0 0 512 512" height="512" viewBox="0 0 512 512" width="512" xmlns="http://www.w3.org/2000/svg"><g><g><path d="m76 15h345v60h-345z" fill="#fff7cc"/><path d="m255 15h166v60h-166z" fill="#ffe6b3"/><path d="m451 15c0 8.4-6.6 15-15 15h-330c-8.28 0-15 6.72-15 15s6.72 15 15 15l-15 30c-16.5 0-30-43.5-30-60s13.5-30 30-30h345c8.4 0 15 6.6 15 15z" fill="#4b2746"/><path d="m451 15c0 8.4-6.6 15-15 15h-181v-30h181c8.4 0 15 6.6 15 15z" fill="#351b33"/><path d="m451 75v422c0 8.29-6.71 15-15 15h-330c-24.81 0-45-20.19-45-45v-437c0 16.5 13.5 30 30 30h345c8.29 0 15 6.71 15 15z" fill="#cb75f6"/><path d="m451 75v422c0 8.29-6.71 15-15 15h-181v-452h181c8.29 0 15 6.71 15 15z" fill="#b760ea"/></g><g><path d="m345 361h-7.6c-6.59 0-12.51-4.42-14.38-10.74l-22.85-77.12c-1.57-5.28-.12-10.98 3.77-14.87l21.67-21.66c9.415-9.415 2.751-25.61-10.61-25.61h-65.41c-21.37 0-39.93 15.21-44.12 36.17l-20.36 101.77c-1.39 6.99-7.58 12.06-14.7 12.06h-5.41c-8.28 0-15 6.72-15 15s6.72 15 15 15h180c8.28 0 15-6.72 15-15s-6.72-15-15-15z" fill="#4b2746"/></g><path d="m360 376c0 8.28-6.72 15-15 15h-89v-180h59c13.366 0 20.02 16.2 10.61 25.61l-21.67 21.66c-3.89 3.89-5.34 9.59-3.77 14.87l22.85 77.12c1.87 6.32 7.79 10.74 14.38 10.74h7.6c8.28 0 15 6.72 15 15z" fill="#351b33"/><g><path d="m225 181h-60c-8.284 0-15-6.716-15-15s6.716-15 15-15h60c8.284 0 15 6.716 15 15s-6.716 15-15 15z" fill="#4b2746"/></g><g><g><g><circle cx="375" cy="196" fill="#351b33" r="15"/></g></g></g><g><g><g><circle cx="135" cy="256" fill="#4b2746" r="15"/></g></g></g></g></svg>