<svg id="Capa_1" enable-background="new 0 0 512 512" height="512" viewBox="0 0 512 512" width="512" xmlns="http://www.w3.org/2000/svg"><g><path d="m76 15h345v60h-345z" fill="#fff7cc"/><path d="m255 15h166v60h-166z" fill="#ffe6b3"/><path d="m451 15c0 8.4-6.6 15-15 15h-330c-8.28 0-15 6.72-15 15s6.72 15 15 15l-15 30c-16.5 0-30-43.5-30-60s13.5-30 30-30h345c8.4 0 15 6.6 15 15z" fill="#4b2746"/><path d="m451 15c0 8.4-6.6 15-15 15h-181v-30h181c8.4 0 15 6.6 15 15z" fill="#351b33"/><path d="m451 75v422c0 8.29-6.71 15-15 15h-330c-24.81 0-45-20.19-45-45v-437c0 16.5 13.5 30 30 30h345c8.29 0 15 6.71 15 15z" fill="#ff641a"/><path d="m451 75v422c0 8.29-6.71 15-15 15h-181v-452h181c8.29 0 15 6.71 15 15z" fill="#f03800"/><path d="m323.32 214.52-68.32-45.55-21.68-14.45c-9.96-6.64-23.32.53-23.32 12.48v120c0 12.07 13.46 19.05 23.32 12.48l21.68-14.45 68.32-45.55c8.91-5.94 8.88-19.04 0-24.96z" fill="#4b2746"/><path d="m323.32 239.48-68.32 45.55v-116.06l68.32 45.55c8.88 5.92 8.91 19.02 0 24.96z" fill="#351b33"/><path d="m165 392h-30c-8.284 0-15-6.716-15-15s6.716-15 15-15h30c8.284 0 15 6.716 15 15s-6.716 15-15 15z" fill="#4b2746"/><path d="m390 377c0 8.28-6.72 15-15 15h-150c-8.28 0-15-6.72-15-15s6.72-15 15-15h150c8.28 0 15 6.72 15 15z" fill="#4b2746"/><path d="m390 377c0 8.28-6.72 15-15 15h-120v-30h120c8.28 0 15 6.72 15 15z" fill="#351b33"/><path d="m195 422c-24.813 0-45-20.187-45-45s20.187-45 45-45 45 20.187 45 45-20.187 45-45 45z" fill="#613d5c"/></g></svg>