<svg id="Capa_1" enable-background="new 0 0 512 512" height="512" viewBox="0 0 512 512" width="512" xmlns="http://www.w3.org/2000/svg"><g><path d="m76 15h345v60h-345z" fill="#fff7cc"/><path d="m255 15h166v60h-166z" fill="#ffe6b3"/><path d="m451 15c0 8.4-6.6 15-15 15h-330c-8.28 0-15 6.72-15 15s6.72 15 15 15l-15 30c-16.5 0-30-43.5-30-60s13.5-30 30-30h345c8.4 0 15 6.6 15 15z" fill="#4b2746"/><path d="m451 15c0 8.4-6.6 15-15 15h-181v-30h181c8.4 0 15 6.6 15 15z" fill="#351b33"/><path d="m451 75v422c0 8.29-6.71 15-15 15h-330c-24.81 0-45-20.19-45-45v-437c0 16.5 13.5 30 30 30h345c8.29 0 15 6.71 15 15z" fill="#ff641a"/><path d="m451 75v422c0 8.29-6.71 15-15 15h-181v-452h181c8.29 0 15 6.71 15 15z" fill="#f03800"/><path d="m190 242h-55c-8.28 0-15 6.72-15 15v60c0 8.28 6.72 15 15 15h55l14.833-45.001z" fill="#4b2746"/><path d="m300 197v180c0 11.97-13.36 19.11-23.32 12.48l-21.68-14.38-65-43.1v-90l65-43.1 21.68-14.38c9.96-6.65 23.32.52 23.32 12.48z" fill="#4b2746"/><g fill="#351b33"><path d="m300 197v180c0 11.97-13.36 19.11-23.32 12.48l-21.68-14.38v-176.2l21.68-14.38c9.96-6.65 23.32.52 23.32 12.48z"/><path d="m330.448 320.638c-2.01-8.037 2.877-16.181 10.914-18.19 11.191-2.798 12.062-12.531 12.062-15.448s-.87-12.65-12.062-15.448c-8.037-2.009-12.924-10.153-10.914-18.19 2.009-8.038 10.163-12.921 18.189-10.914 20.807 5.202 34.786 23.106 34.786 44.552s-13.979 39.351-34.786 44.552c-8.084 2.021-16.191-2.925-18.189-10.914z"/></g></g></svg>