<svg id="Capa_1" enable-background="new 0 0 512 512" height="512" viewBox="0 0 512 512" width="512" xmlns="http://www.w3.org/2000/svg"><g><path d="m76 15h345v60h-345z" fill="#fff7cc"/><path d="m255 15h166v60h-166z" fill="#ffe6b3"/><path d="m451 15c0 8.4-6.6 15-15 15h-330c-8.28 0-15 6.72-15 15s6.72 15 15 15l-15 30c-16.5 0-30-43.5-30-60s13.5-30 30-30h345c8.4 0 15 6.6 15 15z" fill="#4b2746"/><path d="m451 15c0 8.4-6.6 15-15 15h-181v-30h181c8.4 0 15 6.6 15 15z" fill="#351b33"/><path d="m451 75v422c0 8.29-6.71 15-15 15h-330c-24.81 0-45-20.19-45-45v-437c0 16.5 13.5 30 30 30h345c8.29 0 15 6.71 15 15z" fill="#cb75f6"/><path d="m451 75v422c0 8.29-6.71 15-15 15h-181v-452h181c8.29 0 15 6.71 15 15z" fill="#b760ea"/><path d="m360 317c0 57.9-47.1 105-105 105s-105-47.1-105-105c0-40.5 23.72-77.24 60-94.49v-55.51h90v55.51c36.28 17.25 60 53.99 60 94.49z" fill="#4b2746"/><path d="m360 317c0 57.9-47.1 105-105 105v-255h45v55.51c36.28 17.25 60 53.99 60 94.49z" fill="#351b33"/><path d="m330 317c0 41.36-33.64 75-75 75s-75-33.64-75-75c0-10.48 2.27-20.68 6.43-30h5.03c22.06 0 43.81 5.14 63.54 15s41.48 15 63.54 15z" fill="#cb75f6"/><path d="m330 317c0 41.36-33.64 75-75 75v-90c19.73 9.86 41.48 15 63.54 15z" fill="#b760ea"/><path d="m330 167c0 8.28-6.72 15-15 15h-120c-8.28 0-15-6.72-15-15s6.72-15 15-15h120c8.28 0 15 6.72 15 15z" fill="#4b2746"/><path d="m330 167c0 8.28-6.72 15-15 15h-60v-30h60c8.28 0 15 6.72 15 15z" fill="#351b33"/></g></svg>