<svg id="Capa_1" enable-background="new 0 0 512 512" height="512" viewBox="0 0 512 512" width="512" xmlns="http://www.w3.org/2000/svg"><g><path d="m76 15h345v60h-345z" fill="#fff7cc"/><path d="m255 15h166v60h-166z" fill="#ffe6b3"/><path d="m451 15c0 8.4-6.6 15-15 15h-330c-8.28 0-15 6.72-15 15s6.72 15 15 15l-15 30c-16.5 0-30-43.5-30-60s13.5-30 30-30h345c8.4 0 15 6.6 15 15z" fill="#4b2746"/><path d="m451 15c0 8.4-6.6 15-15 15h-181v-30h181c8.4 0 15 6.6 15 15z" fill="#351b33"/><path d="m451 75v422c0 8.29-6.71 15-15 15h-330c-24.81 0-45-20.19-45-45v-437c0 16.5 13.5 30 30 30h345c8.29 0 15 6.71 15 15z" fill="#ff641a"/><path d="m451 75v422c0 8.29-6.71 15-15 15h-181v-452h181c8.29 0 15 6.71 15 15z" fill="#f03800"/><path d="m358.42 130.29c-4.039-8.058-14.233-10.782-21.74-5.77-54.092 36.068-89.876 95.16-95.8 161.13-.07.79-.08 1.58-.02 2.35h29.93c1.08-11.77 3.24-23.28 6.41-34.41 65.356 3.851 110.543-64.634 81.22-123.3z" fill="#351b33"/><path d="m330 347v60c0 8.28-6.72 15-15 15h-120c-8.28 0-15-6.72-15-15v-60c0-3.98 1.58-7.79 4.39-10.61l25.61-25.6v-23.79h90v23.79l25.61 25.6c2.81 2.82 4.39 6.63 4.39 10.61z" fill="#4b2746"/><path d="m330 347v60c0 8.28-6.72 15-15 15h-60v-135h45v23.79l25.61 25.6c2.81 2.82 4.39 6.63 4.39 10.61z" fill="#351b33"/><path d="m330 287c0 8.28-6.72 15-15 15h-120c-8.28 0-15-6.72-15-15s6.72-15 15-15h120c8.28 0 15 6.72 15 15z" fill="#4b2746"/><path d="m330 287c0 8.28-6.72 15-15 15h-60v-30h60c8.28 0 15 6.72 15 15z" fill="#351b33"/></g></svg>