<svg id="Capa_1" enable-background="new 0 0 512 512" height="512" viewBox="0 0 512 512" width="512" xmlns="http://www.w3.org/2000/svg"><g><path d="m76 15h345v60h-345z" fill="#fff7cc"/><path d="m255 15h166v60h-166z" fill="#ffe6b3"/><path d="m451 15c0 8.4-6.6 15-15 15h-330c-8.28 0-15 6.72-15 15s6.72 15 15 15l-15 30c-16.5 0-30-43.5-30-60s13.5-30 30-30h345c8.4 0 15 6.6 15 15z" fill="#4b2746"/><path d="m451 15c0 8.4-6.6 15-15 15h-181v-30h181c8.4 0 15 6.6 15 15z" fill="#351b33"/><path d="m451 75v422c0 8.29-6.71 15-15 15h-330c-24.81 0-45-20.19-45-45v-437c0 16.5 13.5 30 30 30h345c8.29 0 15 6.71 15 15z" fill="#fabe2c"/><path d="m451 75v422c0 8.29-6.71 15-15 15h-181v-452h181c8.29 0 15 6.71 15 15z" fill="#ff9f00"/><path d="m315 332c-9.213 0-17.784 2.787-24.925 7.556l-27.299-20.474c4.626-9.733 7.224-20.608 7.224-32.082s-2.598-22.349-7.224-32.082l27.299-20.474c7.141 4.769 15.712 7.556 24.925 7.556 24.813 0 45-20.187 45-45s-20.187-45-45-45-45 20.187-45 45c0 4.686.722 9.206 2.057 13.457l-27.31 20.482c-13.249-11.77-30.673-18.939-49.747-18.939-41.355 0-75 33.645-75 75s33.645 75 75 75c19.074 0 36.498-7.169 49.747-18.939l27.31 20.482c-1.335 4.251-2.057 8.771-2.057 13.457 0 24.813 20.187 45 45 45s45-20.187 45-45-20.187-45-45-45z" fill="#4b2746"/><path d="m315 242c24.813 0 45-20.187 45-45s-20.187-45-45-45-45 20.187-45 45c0 4.686.722 9.206 2.057 13.457l-17.057 12.793v127.5l17.057 12.793c-1.335 4.251-2.057 8.771-2.057 13.457 0 24.813 20.187 45 45 45s45-20.187 45-45-20.187-45-45-45c-9.213 0-17.784 2.787-24.925 7.556l-27.299-20.474c4.626-9.733 7.224-20.608 7.224-32.082s-2.598-22.349-7.224-32.082l27.299-20.474c7.141 4.769 15.712 7.556 24.925 7.556z" fill="#351b33"/></g></svg>