<svg id="Capa_1" enable-background="new 0 0 512 512" height="512" viewBox="0 0 512 512" width="512" xmlns="http://www.w3.org/2000/svg"><g><path d="m76 15h345v60h-345z" fill="#fff7cc"/><path d="m255 15h166v60h-166z" fill="#ffe6b3"/><path d="m451 15c0 8.4-6.6 15-15 15h-330c-8.28 0-15 6.72-15 15s6.72 15 15 15l-15 30c-16.5 0-30-43.5-30-60s13.5-30 30-30h345c8.4 0 15 6.6 15 15z" fill="#4b2746"/><path d="m451 15c0 8.4-6.6 15-15 15h-181v-30h181c8.4 0 15 6.6 15 15z" fill="#351b33"/><path d="m451 75v422c0 8.29-6.71 15-15 15h-330c-24.81 0-45-20.19-45-45v-437c0 16.5 13.5 30 30 30h345c8.29 0 15 6.71 15 15z" fill="#65d6a9"/><path d="m451 75v422c0 8.29-6.71 15-15 15h-181v-452h181c8.29 0 15 6.71 15 15z" fill="#26bfa6"/><path d="m330 302h-1.51c-6.97-34.19-37.27-60-73.49-60s-66.52 25.81-73.49 60h-1.51c-33.08 0-60 26.92-60 60s26.92 60 60 60h150c33.08 0 60-26.92 60-60s-26.92-60-60-60z" fill="#fff7cc"/><path d="m390 362c0 33.08-26.92 60-60 60h-75v-180c36.22 0 66.52 25.81 73.49 60h1.51c33.08 0 60 26.92 60 60z" fill="#ffe6b3"/><path d="m295.61 207.61c-5.86 5.85-15.36 5.85-21.22 0l-4.39-4.4v53.79c0 8.28-6.72 15-15 15s-15-6.72-15-15v-53.79l-4.39 4.4c-5.86 5.85-15.36 5.85-21.22 0-5.85-5.86-5.85-15.36 0-21.22l30-30h.01c2.92-2.93 6.76-4.39 10.6-4.39s7.68 1.46 10.6 4.39h.01l30 30c5.85 5.86 5.85 15.36 0 21.22z" fill="#4b2746"/><path d="m295.61 207.61c-5.86 5.85-15.36 5.85-21.22 0l-4.39-4.4v53.79c0 8.28-6.72 15-15 15v-120c3.84 0 7.68 1.46 10.6 4.39h.01l30 30c5.85 5.86 5.85 15.36 0 21.22z" fill="#351b33"/></g></svg>