<svg id="Capa_1" enable-background="new 0 0 512 512" height="512" viewBox="0 0 512 512" width="512" xmlns="http://www.w3.org/2000/svg"><g><path d="m76 15h345v60h-345z" fill="#fff7cc"/><path d="m255 15h166v60h-166z" fill="#ffe6b3"/><path d="m451 15c0 8.4-6.6 15-15 15h-330c-8.28 0-15 6.72-15 15s6.72 15 15 15l-15 30c-16.5 0-30-43.5-30-60s13.5-30 30-30h345c8.4 0 15 6.6 15 15z" fill="#4b2746"/><path d="m451 15c0 8.4-6.6 15-15 15h-181v-30h181c8.4 0 15 6.6 15 15z" fill="#351b33"/><path d="m436 60c8.29 0 15 6.71 15 15v422c0 8.29-6.71 15-15 15h-330c-24.81 0-45-20.19-45-45v-437c0 16.5 13.5 30 30 30z" fill="#fabe2c"/><path d="m436 60c8.29 0 15 6.71 15 15v422c0 8.29-6.71 15-15 15h-181v-452z" fill="#ff9f00"/><path d="m310.062 319.85c13.144-17.535 20.938-39.299 20.938-62.85 0-57.897-47.103-105-105-105s-105 47.103-105 105 47.103 105 105 105c23.551 0 45.314-7.794 62.849-20.938l64.118 64.118c2.929 2.929 6.768 4.394 10.606 4.394s7.678-1.464 10.606-4.394c5.858-5.858 5.858-15.355 0-21.213z" fill="#4b2746"/><path d="m310.062 319.85c13.144-17.535 20.938-39.299 20.938-62.85 0-47.841-32.162-88.309-76-100.924v201.839c12.364-3.559 23.803-9.322 33.849-16.853l64.118 64.118c2.929 2.929 6.768 4.394 10.606 4.394s7.678-1.464 10.606-4.394c5.858-5.858 5.858-15.355 0-21.213z" fill="#351b33"/><path d="m151 257c0-41.355 33.645-75 75-75s75 33.645 75 75c0 20.642-8.384 39.362-21.924 52.937-.024.023-.05.043-.073.066-.023.024-.043.05-.066.073-13.575 13.54-32.295 21.924-52.937 21.924-41.355 0-75-33.645-75-75z" fill="#fabe2c"/><path d="m255 187.838v138.324c9.004-3.79 17.12-9.287 23.937-16.086.023-.024.043-.05.066-.073.024-.024.05-.043.073-.066 13.54-13.575 21.924-32.295 21.924-52.937 0-31.079-19.004-57.8-46-69.162z" fill="#ff9f00"/></g></svg>