<svg id="Capa_1" enable-background="new 0 0 512 512" height="512" viewBox="0 0 512 512" width="512" xmlns="http://www.w3.org/2000/svg"><g><path d="m76 15h345v60h-345z" fill="#fff7cc"/><path d="m255 15h166v60h-166z" fill="#ffe6b3"/><path d="m451 15c0 8.4-6.6 15-15 15h-330c-8.28 0-15 6.72-15 15s6.72 15 15 15l-15 30c-16.5 0-30-43.5-30-60s13.5-30 30-30h345c8.4 0 15 6.6 15 15z" fill="#4b2746"/><path d="m451 15c0 8.4-6.6 15-15 15h-181v-30h181c8.4 0 15 6.6 15 15z" fill="#351b33"/><path d="m451 75v422c0 8.29-6.71 15-15 15h-330c-24.81 0-45-20.19-45-45v-437c0 16.5 13.5 30 30 30h345c8.29 0 15 6.71 15 15z" fill="#fabe2c"/><path d="m451 75v422c0 8.29-6.71 15-15 15h-181v-452h181c8.29 0 15 6.71 15 15z" fill="#ff9f00"/><path d="m390 272c0 33.08-26.92 60-60 60v15l-75 15.33-75-15.33v-15c-33.08 0-60-26.92-60-60s26.92-60 60-60c.5 0 1 .01 1.5.02 6.96-34.2 37.27-60.02 73.5-60.02s66.54 25.82 73.5 60.02c.5-.01 1-.02 1.5-.02 33.08 0 60 26.92 60 60z" fill="#4b2746"/><path d="m390 272c0 33.08-26.92 60-60 60v15l-75 15.33v-210.33c36.23 0 66.54 25.82 73.5 60.02.5-.01 1-.02 1.5-.02 33.08 0 60 26.92 60 60z" fill="#351b33"/><path d="m330 347v60c0 8.28-6.72 15-15 15h-120c-8.28 0-15-6.72-15-15v-60z" fill="#613d5c"/><path d="m330 347v60c0 8.28-6.72 15-15 15h-60v-75z" fill="#4b2746"/></g></svg>