<svg id="Capa_1" enable-background="new 0 0 512 512" height="512" viewBox="0 0 512 512" width="512" xmlns="http://www.w3.org/2000/svg"><g><path d="m76 15h345v60h-345z" fill="#fff7cc"/><path d="m255 15h166v60h-166z" fill="#ffe6b3"/><path d="m451 15c0 8.4-6.6 15-15 15h-330c-8.28 0-15 6.72-15 15s6.72 15 15 15l-15 30c-16.5 0-30-43.5-30-60s13.5-30 30-30h345c8.4 0 15 6.6 15 15z" fill="#4b2746"/><path d="m451 15c0 8.4-6.6 15-15 15h-181v-30h181c8.4 0 15 6.6 15 15z" fill="#351b33"/><path d="m451 75v422c0 8.29-6.71 15-15 15h-330c-24.81 0-45-20.19-45-45v-437c0 16.5 13.5 30 30 30h345c8.29 0 15 6.71 15 15z" fill="#cb75f6"/><path d="m451 75v422c0 8.29-6.71 15-15 15h-181v-452h181c8.29 0 15 6.71 15 15z" fill="#b760ea"/><path d="m365.812 212h9.188c8.28 0 15-6.72 15-15s-6.72-15-15-15h-105v-15c0-8.28-6.72-15-15-15s-15 6.72-15 15v15h-105c-8.28 0-15 6.72-15 15s6.72 15 15 15h9.188l-23.419 70.256c-.51 1.53-.77 3.131-.77 4.744 0 24.813 20.187 45 45 45s45-20.187 45-45c0-1.612-.26-3.214-.77-4.744l-23.417-70.256h54.188v180h-15c-8.28 0-15 6.72-15 15s6.72 15 15 15h60c8.28 0 15-6.72 15-15s-6.72-15-15-15h-15v-180h54.188l-23.419 70.256c-.51 1.53-.77 3.131-.77 4.744 0 24.813 20.187 45 45 45s45-20.187 45-45c0-1.612-.26-3.214-.77-4.744zm-200.812 90c-7.584 0-13.872-5.658-14.864-12.975l14.864-44.591 14.864 44.591c-.992 7.317-7.28 12.975-14.864 12.975zm180 0c-7.584 0-13.872-5.658-14.864-12.975l14.864-44.591 14.864 44.591c-.992 7.317-7.28 12.975-14.864 12.975z" fill="#4b2746"/><path d="m285 422c8.28 0 15-6.72 15-15s-6.72-15-15-15h-15v-180h54.188l-23.419 70.256c-.51 1.53-.77 3.131-.77 4.744 0 24.813 20.187 45 45 45s45-20.187 45-45c0-1.612-.26-3.214-.77-4.744l-23.417-70.256h9.188c8.28 0 15-6.72 15-15s-6.72-15-15-15h-105v-15c0-8.28-6.72-15-15-15v270zm60-177.566 14.864 44.591c-.992 7.317-7.28 12.975-14.864 12.975s-13.872-5.658-14.864-12.975z" fill="#351b33"/></g></svg>