<svg id="Capa_1" enable-background="new 0 0 512 512" height="512" viewBox="0 0 512 512" width="512" xmlns="http://www.w3.org/2000/svg"><g><path d="m76 15h345v60h-345z" fill="#fff7cc"/><path d="m255 15h166v60h-166z" fill="#ffe6b3"/><path d="m451 15c0 8.4-6.6 15-15 15h-330c-8.28 0-15 6.72-15 15s6.72 15 15 15l-15 30c-16.5 0-30-43.5-30-60s13.5-30 30-30h345c8.4 0 15 6.6 15 15z" fill="#4b2746"/><path d="m451 15c0 8.4-6.6 15-15 15h-181v-30h181c8.4 0 15 6.6 15 15z" fill="#351b33"/><path d="m451 75v422c0 8.29-6.71 15-15 15h-330c-24.81 0-45-20.19-45-45v-437c0 16.5 13.5 30 30 30h345c8.29 0 15 6.71 15 15z" fill="#ff641a"/><path d="m451 75v422c0 8.29-6.71 15-15 15h-181v-452h181c8.29 0 15 6.71 15 15z" fill="#f03800"/><g><path d="m315 422h-45c-8.284 0-15-6.716-15-15s6.716-15 15-15h45c8.271 0 15-6.729 15-15v-30c0-8.284 6.716-15 15-15s15 6.716 15 15v30c0 24.813-20.187 45-45 45z" fill="#351b33"/></g><g><path d="m195 362h-30c-24.813 0-45-20.187-45-45v-30c0-24.813 20.187-45 45-45h30c8.284 0 15 6.716 15 15v90c0 8.284-6.716 15-15 15z" fill="#4b2746"/></g><g><g><g><g><path d="m345 362h-30c-8.284 0-15-6.716-15-15v-90c0-8.284 6.716-15 15-15h30c24.813 0 45 20.187 45 45v30c0 24.813-20.187 45-45 45z" fill="#351b33"/></g></g></g></g><g><path d="m360 227v30c0 8.28-6.72 15-15 15s-15-6.72-15-15v-30c0-24.81-20.19-45-45-45h-60c-24.81 0-45 20.19-45 45v30c0 8.28-6.72 15-15 15s-15-6.72-15-15v-30c0-41.35 33.65-75 75-75h60c41.35 0 75 33.65 75 75z" fill="#4b2746"/></g><path d="m360 227v30c0 8.28-6.72 15-15 15s-15-6.72-15-15v-30c0-24.81-20.19-45-45-45h-30v-30h30c41.35 0 75 33.65 75 75z" fill="#351b33"/></g></svg>