<svg id="Capa_1" enable-background="new 0 0 512 512" height="512" viewBox="0 0 512 512" width="512" xmlns="http://www.w3.org/2000/svg"><g><path d="m76 15h345v60h-345z" fill="#fff7cc"/><path d="m255 15h166v60h-166z" fill="#ffe6b3"/><path d="m451 15c0 8.4-6.6 15-15 15h-330c-8.28 0-15 6.72-15 15s6.72 15 15 15l-15 30c-16.5 0-30-43.5-30-60s13.5-30 30-30h345c8.4 0 15 6.6 15 15z" fill="#4b2746"/><path d="m451 15c0 8.4-6.6 15-15 15h-181v-30h181c8.4 0 15 6.6 15 15z" fill="#351b33"/><path d="m451 75v422c0 8.29-6.71 15-15 15h-330c-24.81 0-45-20.19-45-45v-437c0 16.5 13.5 30 30 30h345c8.29 0 15 6.71 15 15z" fill="#cb75f6"/><path d="m451 75v422c0 8.29-6.71 15-15 15h-181v-452h181c8.29 0 15 6.71 15 15z" fill="#b760ea"/><path d="m329.995 152h-59.995c-8.284 0-15 6.716-15 15s6.716 15 15 15h23.787l-42.458 42.458c-11.859-7.864-26.065-12.458-41.329-12.458-41.355 0-75 33.645-75 75 0 36.219 25.808 66.522 60 73.491v31.509h-15c-8.284 0-15 6.716-15 15s6.716 15 15 15h15v15c0 8.284 6.716 15 15 15s15-6.716 15-15v-15h15c8.284 0 15-6.716 15-15s-6.716-15-15-15h-15v-31.509c34.192-6.968 60-37.271 60-73.491 0-15.264-4.594-29.47-12.458-41.329l42.458-42.458v23.787c0 8.284 6.716 15 15 15s15-6.716 15-15v-59.995c.004-8.345-6.791-15.009-15.005-15.005zm-119.995 180c-24.813 0-45-20.187-45-45s20.187-45 45-45 45 20.187 45 45-20.187 45-45 45z" fill="#4b2746"/><path d="m270 182h23.787l-38.787 38.787v126.156c18.2-13.697 30-35.462 30-59.943 0-15.264-4.594-29.47-12.458-41.329l42.458-42.458v23.787c0 8.284 6.716 15 15 15s15-6.716 15-15v-59.995c.004-8.345-6.791-15.009-15.005-15.005h-59.995c-8.284 0-15 6.716-15 15s6.716 15 15 15z" fill="#351b33"/></g></svg>