<svg id="Capa_1" enable-background="new 0 0 512 512" height="512" viewBox="0 0 512 512" width="512" xmlns="http://www.w3.org/2000/svg"><g><path d="m76 15h345v60h-345z" fill="#fff7cc"/><path d="m255 15h166v60h-166z" fill="#ffe6b3"/><path d="m451 15c0 8.4-6.6 15-15 15h-330c-8.28 0-15 6.72-15 15s6.72 15 15 15l-15 30c-16.5 0-30-43.5-30-60s13.5-30 30-30h345c8.4 0 15 6.6 15 15z" fill="#4b2746"/><path d="m451 15c0 8.4-6.6 15-15 15h-181v-30h181c8.4 0 15 6.6 15 15z" fill="#351b33"/><path d="m451 75v422c0 8.29-6.71 15-15 15h-330c-24.81 0-45-20.19-45-45v-437c0 16.5 13.5 30 30 30h345c8.29 0 15 6.71 15 15z" fill="#65d6a9"/><path d="m451 75v422c0 8.29-6.71 15-15 15h-181v-452h181c8.29 0 15 6.71 15 15z" fill="#26bfa6"/><path d="m383.077 329.692-38.077-20.692-47.319-7.773c-4.474 13.383-15.071 23.98-28.454 28.454v43.319l28.465 42.077c40.157-13.42 71.965-45.228 85.385-85.385z" fill="#4b2746"/><path d="m237.276 245.645v-48.645l-35.452-34.077c-31.747 13.658-57.243 39.154-70.901 70.901l34.077 35.452h48.645c4.553-10.581 13.05-19.078 23.631-23.631z" fill="#613d5c"/><path d="m390 287c0 14.91-2.44 29.27-6.92 42.69l-85.4-28.46c1.5-4.48 2.32-9.26 2.32-14.23 0-24.81-20.19-45-45-45-6.29 0-12.28 1.3-17.72 3.64l-35.46-82.72c16.33-7.02 34.31-10.92 53.18-10.92 74.44 0 135 60.56 135 135z" fill="#4b2746"/><path d="m390 287c0 14.91-2.44 29.27-6.92 42.69l-85.4-28.46c1.5-4.48 2.32-9.26 2.32-14.23 0-24.81-20.19-45-45-45v-90c74.44 0 135 60.56 135 135z" fill="#351b33"/><path d="m297.69 415.08c-13.42 4.48-27.78 6.92-42.69 6.92-74.44 0-135-60.56-135-135 0-18.87 3.9-36.85 10.92-53.18l82.72 35.46c-2.34 5.44-3.64 11.43-3.64 17.72 0 24.81 20.19 45 45 45 4.97 0 9.75-.82 14.23-2.32z" fill="#4b2746"/><path d="m297.69 415.08c-13.42 4.48-27.78 6.92-42.69 6.92v-90c4.97 0 9.75-.82 14.23-2.32z" fill="#351b33"/></g></svg>