<svg id="Capa_1" enable-background="new 0 0 512 512" height="512" viewBox="0 0 512 512" width="512" xmlns="http://www.w3.org/2000/svg"><g><path d="m76 15h345v60h-345z" fill="#fff7cc"/><path d="m255 15h166v60h-166z" fill="#ffe6b3"/><path d="m451 15c0 8.4-6.6 15-15 15h-330c-8.28 0-15 6.72-15 15s6.72 15 15 15l-15 30c-16.5 0-30-43.5-30-60s13.5-30 30-30h345c8.4 0 15 6.6 15 15z" fill="#4b2746"/><path d="m451 15c0 8.4-6.6 15-15 15h-181v-30h181c8.4 0 15 6.6 15 15z" fill="#351b33"/><path d="m451 75v422c0 8.29-6.71 15-15 15h-330c-24.81 0-45-20.19-45-45v-437c0 16.5 13.5 30 30 30h345c8.29 0 15 6.71 15 15z" fill="#fabe2c"/><path d="m451 75v422c0 8.29-6.71 15-15 15h-181v-452h181c8.29 0 15 6.71 15 15z" fill="#ff9f00"/><path d="m195 212h120v195h-120z" fill="#4b2746"/><path d="m255 212h60v195h-60z" fill="#351b33"/><g><path d="m270 227v180c0 8.28-6.72 15-15 15s-15-6.72-15-15v-180c0-8.28 6.72-15 15-15s15 6.72 15 15z" fill="#613d5c"/></g><path d="m270 227v180c0 8.28-6.72 15-15 15v-210c8.28 0 15 6.72 15 15z" fill="#4b2746"/><g><path d="m195 422c-8.284 0-15-6.716-15-15v-152.561c0-8.284 6.716-15 15-15s15 6.716 15 15v152.561c0 8.284-6.716 15-15 15z" fill="#613d5c"/></g><g><g><g><path d="m315 422c-8.284 0-15-6.716-15-15v-152.561c0-8.284 6.716-15 15-15s15 6.716 15 15v152.561c0 8.284-6.716 15-15 15z" fill="#4b2746"/></g></g></g><g><path d="m330 152h-150c-33.08 0-60 26.92-60 60s26.92 60 60 60c21.66 0 41.39-11.7 51.97-30h46.06c10.58 18.3 30.31 30 51.97 30 33.08 0 60-26.92 60-60s-26.92-60-60-60z" fill="#613d5c"/><path d="m390 212c0 33.08-26.92 60-60 60-21.66 0-41.39-11.7-51.97-30h-23.03v-90h75c33.08 0 60 26.92 60 60z" fill="#4b2746"/><path d="m360 212c0 16.54-13.46 30-30 30-10.68 0-20.65-5.75-26-15.02l-8.67-14.98h-80.66l-8.67 14.98c-5.35 9.27-15.32 15.02-26 15.02-16.54 0-30-13.46-30-30s13.46-30 30-30h150c16.54 0 30 13.46 30 30z" fill="#4b2746"/><path d="m360 212c0 16.54-13.46 30-30 30-10.68 0-20.65-5.75-26-15.02l-8.67-14.98h-40.33v-30h75c16.54 0 30 13.46 30 30z" fill="#351b33"/></g><g><path d="m360 407c0 8.28-6.72 15-15 15h-180c-8.28 0-15-6.72-15-15s6.72-15 15-15h180c8.28 0 15 6.72 15 15z" fill="#613d5c"/></g><path d="m360 407c0 8.28-6.72 15-15 15h-90v-30h90c8.28 0 15 6.72 15 15z" fill="#4b2746"/></g></svg>