<svg id="Capa_1" enable-background="new 0 0 512 512" height="512" viewBox="0 0 512 512" width="512" xmlns="http://www.w3.org/2000/svg"><g><path d="m76 15h345v60h-345z" fill="#fff7cc"/><path d="m255 15h166v60h-166z" fill="#ffe6b3"/><path d="m451 15c0 8.4-6.6 15-15 15h-330c-8.28 0-15 6.72-15 15s6.72 15 15 15l-15 30c-16.5 0-30-43.5-30-60s13.5-30 30-30h345c8.4 0 15 6.6 15 15z" fill="#4b2746"/><path d="m451 15c0 8.4-6.6 15-15 15h-181v-30h181c8.4 0 15 6.6 15 15z" fill="#351b33"/><path d="m451 75v422c0 8.29-6.71 15-15 15h-330c-24.81 0-45-20.19-45-45v-437c0 16.5 13.5 30 30 30h345c8.29 0 15 6.71 15 15z" fill="#65d6a9"/><path d="m451 75v422c0 8.29-6.71 15-15 15h-181v-452h181c8.29 0 15 6.71 15 15z" fill="#26bfa6"/><path d="m316 206.71c-19.38-7.33-35.15-21.56-44.42-40.09-1.65-2.19-4.34-14.62-16.58-14.62-8.28 0-15 6.71-15 15v170.856c-8.778-3.73-18.994-5.856-30-5.856-33.645 0-60 19.766-60 45s26.355 45 60 45 60-19.766 60-45v-163.76c10.25 9.22 22.21 16.55 35.39 21.53 32.64 12.33 31.62 52.61 3.73 64.5-7.62 3.25-11.17 12.06-7.92 19.68s12.06 11.17 19.68 7.92c52.44-22.36 53.34-98.16-4.88-120.16z" fill="#4b2746"/><path d="m270 377v-163.76c10.25 9.22 22.21 16.55 35.39 21.53 32.64 12.33 31.62 52.61 3.73 64.5-7.62 3.25-11.17 12.06-7.92 19.68s12.06 11.17 19.68 7.92c52.44-22.36 53.34-98.16-4.88-120.16-19.38-7.33-35.15-21.56-44.42-40.09-1.65-2.19-4.34-14.62-16.58-14.62v255.053c9.368-7.914 15-18.397 15-30.053z" fill="#351b33"/></g></svg>