<svg id="Capa_1" enable-background="new 0 0 512 512" height="512" viewBox="0 0 512 512" width="512" xmlns="http://www.w3.org/2000/svg"><g><path d="m76 15h345v60h-345z" fill="#fff7cc"/><path d="m255 15h166v60h-166z" fill="#ffe6b3"/><path d="m451 15c0 8.4-6.6 15-15 15h-330c-8.28 0-15 6.72-15 15s6.72 15 15 15l-15 30c-16.5 0-30-43.5-30-60s13.5-30 30-30h345c8.4 0 15 6.6 15 15z" fill="#4b2746"/><path d="m451 15c0 8.4-6.6 15-15 15h-181v-30h181c8.4 0 15 6.6 15 15z" fill="#351b33"/><path d="m451 75v422c0 8.29-6.71 15-15 15h-330c-24.81 0-45-20.19-45-45v-437c0 16.5 13.5 30 30 30h345c8.29 0 15 6.71 15 15z" fill="#613d5c"/><path d="m451 75v422c0 8.29-6.71 15-15 15h-181v-452h181c8.29 0 15 6.71 15 15z" fill="#4b2746"/><g><path d="m375 242h-90c-8.284 0-15-6.716-15-15s6.716-15 15-15h90c8.284 0 15 6.716 15 15s-6.716 15-15 15z" fill="#ffe6b3"/></g><g><path d="m225 332h-90c-8.284 0-15-6.716-15-15s6.716-15 15-15h90c8.284 0 15 6.716 15 15s-6.716 15-15 15z" fill="#fff7cc"/></g><g><path d="m225 392h-90c-8.284 0-15-6.716-15-15s6.716-15 15-15h90c8.284 0 15 6.716 15 15s-6.716 15-15 15z" fill="#fff7cc"/></g><g><path d="m287.574 389.426c-5.858-5.857-5.858-15.355 0-21.213l63.639-63.64c5.857-5.858 15.355-5.858 21.213 0 5.858 5.857 5.858 15.355 0 21.213l-63.639 63.64c-5.856 5.858-15.355 5.859-21.213 0z" fill="#ff641a"/></g><g><path d="m351.213 389.426-63.639-63.64c-5.858-5.858-5.858-15.355 0-21.213 5.857-5.858 15.355-5.857 21.213 0l63.639 63.64c5.858 5.858 5.858 15.355 0 21.213s-15.356 5.859-21.213 0z" fill="#ff641a"/></g><g><path d="m151.583 263.708-30-60c-3.705-7.41-.701-16.419 6.708-20.125 7.409-3.705 16.42-.702 20.125 6.708l18.44 36.881 45.662-68.493c2.782-4.173 7.466-6.68 12.481-6.68h15c8.284 0 15 6.716 15 15s-6.716 15-15 15h-6.972l-55.547 83.32c-6.36 9.543-20.728 8.726-25.897-1.611z" fill="#65d6a9"/></g></g></svg>