<svg id="Capa_1" enable-background="new 0 0 512 512" height="512" viewBox="0 0 512 512" width="512" xmlns="http://www.w3.org/2000/svg"><g><path d="m76 15h345v60h-345z" fill="#fff7cc"/><path d="m255 15h166v60h-166z" fill="#ffe6b3"/><path d="m451 15c0 8.4-6.6 15-15 15h-330c-8.28 0-15 6.72-15 15s6.72 15 15 15l-15 30c-16.5 0-30-43.5-30-60s13.5-30 30-30h345c8.4 0 15 6.6 15 15z" fill="#4b2746"/><path d="m451 15c0 8.4-6.6 15-15 15h-181v-30h181c8.4 0 15 6.6 15 15z" fill="#351b33"/><path d="m451 75v422c0 8.29-6.71 15-15 15h-330c-24.81 0-45-20.19-45-45v-437c0 16.5 13.5 30 30 30h345c8.29 0 15 6.71 15 15z" fill="#ff641a"/><path d="m451 75v422c0 8.29-6.71 15-15 15h-181v-452h181c8.29 0 15 6.71 15 15z" fill="#f03800"/><g><path d="m255 152c-57.9 0-105 47.1-105 105 0 22.85 7.24 44.59 20.94 62.87l72.06 96.13c3 4 7.5 6 12 6s9-2 12-6l72.06-96.13c13.7-18.28 20.94-40.02 20.94-62.87 0-57.9-47.1-105-105-105zm0 150c-24.81 0-45-20.19-45-45s20.19-45 45-45 45 20.19 45 45-20.19 45-45 45z" fill="#4b2746"/></g><path d="m360 257c0 22.85-7.24 44.59-20.94 62.87l-72.06 96.13c-3 4-7.5 6-12 6v-120c24.81 0 45-20.19 45-45s-20.19-45-45-45v-60c57.9 0 105 47.1 105 105z" fill="#351b33"/></g></svg>