<svg id="Capa_1" enable-background="new 0 0 512 512" height="512" viewBox="0 0 512 512" width="512" xmlns="http://www.w3.org/2000/svg"><g><path d="m76 15h345v60h-345z" fill="#fff7cc"/><path d="m255 15h166v60h-166z" fill="#ffe6b3"/><path d="m451 15c0 8.4-6.6 15-15 15h-330c-8.28 0-15 6.72-15 15s6.72 15 15 15l-15 30c-16.5 0-30-43.5-30-60s13.5-30 30-30h345c8.4 0 15 6.6 15 15z" fill="#4b2746"/><path d="m451 15c0 8.4-6.6 15-15 15h-181v-30h181c8.4 0 15 6.6 15 15z" fill="#351b33"/><path d="m451 75v422c0 8.29-6.71 15-15 15h-330c-24.81 0-45-20.19-45-45v-437c0 16.5 13.5 30 30 30h345c8.29 0 15 6.71 15 15z" fill="#613d5c"/><path d="m451 75v422c0 8.29-6.71 15-15 15h-181v-452h181c8.29 0 15 6.71 15 15z" fill="#4b2746"/><path d="m254.988 362.003c-2.255 0-4.543-.51-6.696-1.587l-60-30c-7.41-3.705-10.413-12.715-6.708-20.125s12.718-10.412 20.124-6.708l60 30c7.41 3.705 10.413 12.715 6.708 20.125-2.628 5.256-7.926 8.295-13.428 8.295z" fill="#65d6a9"/><path d="m255.012 392.003c-5.503 0-10.8-3.039-13.428-8.295-3.705-7.41-.702-16.419 6.708-20.125l60-30c7.411-3.705 16.42-.701 20.124 6.708 3.705 7.41.702 16.419-6.708 20.125l-60 30c-2.153 1.077-4.442 1.587-6.696 1.587z" fill="#26bfa6"/><path d="m270 302v105c0 8.28-6.72 15-15 15s-15-6.72-15-15v-105c0-8.28 6.72-15 15-15s15 6.72 15 15z" fill="#65d6a9"/><path d="m270 302v105c0 8.28-6.72 15-15 15v-135c8.28 0 15 6.72 15 15z" fill="#26bfa6"/><path d="m315 152-60 150c-41.36 0-75-33.65-75-75v-60c0-8.28 6.72-15 15-15z" fill="#ff641a"/><path d="m315 152-60 150v-150z" fill="#f03800"/><path d="m330 167v60c0 41.35-33.64 75-75 75v-90c0-33.14 26.86-60 60-60 8.28 0 15 6.72 15 15z" fill="#cd0000"/></g></svg>