<svg id="Capa_1" enable-background="new 0 0 512 512" height="512" viewBox="0 0 512 512" width="512" xmlns="http://www.w3.org/2000/svg"><g><g><path d="m382.42 202.03-21.82-12.6c.53-5.71.53-11.12 0-16.86l21.82-12.6c7.18-4.14 9.64-13.31 5.49-20.49l-30-51.96c-4.14-7.18-13.31-9.63-20.49-5.49l-22.13 12.78c-4.55-3.15-9.32-5.92-14.29-8.29v-25.52c0-8.28-6.72-15-15-15h-60c-8.28 0-15 6.72-15 15v25.52c-4.97 2.37-9.74 5.14-14.29 8.29l-22.13-12.78c-7.18-4.15-16.35-1.69-20.49 5.49l-30 51.96c-4.15 7.18-1.69 16.35 5.49 20.49l21.82 12.6c-.53 5.71-.53 11.12 0 16.86l-21.82 12.6c-7.18 4.14-9.64 13.31-5.49 20.49l30 51.96c4.14 7.18 13.31 9.63 20.49 5.49l22.13-12.78c4.55 3.15 9.32 5.92 14.29 8.29v25.52c0 8.28 6.72 15 15 15h60c8.28 0 15-6.72 15-15v-25.52c4.97-2.37 9.74-5.14 14.29-8.29l22.13 12.78c7.18 4.14 16.35 1.69 20.49-5.49l30-51.96c4.15-7.18 1.69-16.35-5.49-20.49zm-126.42 23.97c-24.81 0-45-20.19-45-45s20.19-45 45-45 45 20.19 45 45-20.19 45-45 45z" fill="#fabe2c"/></g><path d="m387.91 222.52-30 51.96c-4.14 7.18-13.31 9.63-20.49 5.49l-22.13-12.78c-4.55 3.15-9.32 5.92-14.29 8.29v25.52c0 8.28-6.72 15-15 15h-30v-90c24.81 0 45-20.19 45-45s-20.19-45-45-45v-90h30c8.28 0 15 6.72 15 15v25.52c4.97 2.37 9.74 5.14 14.29 8.29l22.13-12.78c7.18-4.14 16.35-1.69 20.49 5.49l30 51.96c4.15 7.18 1.69 16.35-5.49 20.49l-21.82 12.6c.53 5.74.53 11.15 0 16.86l21.82 12.6c7.18 4.14 9.64 13.31 5.49 20.49z" fill="#ff9f00"/></g><path d="m481 361v60l-213 15h-12-17l-208-15v-60c0-8.28 6.72-15 15-15h150c24.51 0 46.31 11.82 60 30.05 13.69-18.23 35.49-30.05 60-30.05h150c8.28 0 15 6.72 15 15z" fill="#fff7cc"/><path d="m481 361v60l-213 15h-12v-59.95c13.69-18.23 35.49-30.05 60-30.05h150c8.28 0 15 6.72 15 15z" fill="#ffe6b3"/><g><g><g><path d="m512 421c0 8.28-6.72 15-15 15h-141.79c-30.52 0-54.43 6.77-71.06 20.11-7.95 6.38-17.94 9.89-28.15 9.89s-20.2-3.51-28.15-9.89c-16.63-13.34-40.54-20.11-71.06-20.11h-141.79c-8.28 0-15-6.72-15-15s6.72-15 15-15h141.79c37.52 0 67.75 8.99 89.83 26.71 1.87 1.5 5.02 3.29 9.38 3.29s7.51-1.79 9.37-3.29c22.09-17.72 52.32-26.71 89.84-26.71h141.79c8.28 0 15 6.72 15 15z" fill="#613d5c"/></g></g></g><path d="m512 421c0 8.28-6.72 15-15 15h-141.79c-30.52 0-54.43 6.77-71.06 20.11-7.95 6.38-17.94 9.89-28.15 9.89v-30c4.36 0 7.51-1.79 9.37-3.29 22.09-17.72 52.32-26.71 89.84-26.71h141.79c8.28 0 15 6.72 15 15z" fill="#4b2746"/></svg>