<svg id="Capa_1" enable-background="new 0 0 512 512" height="512" viewBox="0 0 512 512" width="512" xmlns="http://www.w3.org/2000/svg"><g><path d="m436 180c0 124.03-161.62 318.42-168.5 326.63-3 3.58-7.25 5.37-11.5 5.37s-8.5-1.79-11.5-5.37c-6.88-8.21-168.5-202.6-168.5-326.63 0-99.25 80.75-180 180-180s180 80.75 180 180z" fill="#ff641a"/><path d="m436 180c0 124.03-161.62 318.42-168.5 326.63-3 3.58-7.25 5.37-11.5 5.37v-512c99.25 0 180 80.75 180 180z" fill="#f03800"/><g><path d="m316 135h-90c-8.27 0-15-6.73-15-15 0-8.28-6.72-15-15-15s-15 6.72-15 15v135c0 24.81 20.19 45 45 45h90c8.28 0 15-6.72 15-15v-135c0-8.28-6.72-15-15-15z" fill="#4b2746"/></g><path d="m331 150v135c0 8.28-6.72 15-15 15h-60v-165h60c8.28 0 15 6.72 15 15z" fill="#351b33"/><g><path d="m331 105v45h-120c-16.54 0-30-13.46-30-30s13.46-30 30-30h105c8.28 0 15 6.72 15 15z" fill="#fff7cc"/></g><path d="m331 105v45h-75v-60h60c8.28 0 15 6.72 15 15z" fill="#ffe6b3"/></g></svg>