<svg id="Capa_1" enable-background="new 0 0 512 512" height="512" viewBox="0 0 512 512" width="512" xmlns="http://www.w3.org/2000/svg"><g><g><g><g><g><path d="m436.5 422h-30c-8.284 0-15-6.716-15-15v-90c0-8.284 6.716-15 15-15h30c8.271 0 15-6.729 15-15 0-8.284 6.716-15 15-15s15 6.716 15 15v90c0 24.813-20.187 45-45 45z" fill="#ff9f00"/></g></g></g></g><g><path d="m436.5 332h-30c-8.284 0-15-6.716-15-15v-90c0-8.284 6.716-15 15-15h30c8.271 0 15-6.729 15-15 0-8.284 6.716-15 15-15s15 6.716 15 15v90c0 24.813-20.187 45-45 45z" fill="#ffe6b3"/></g><g><path d="m436.5 242h-30c-8.284 0-15-6.716-15-15v-120c0-8.284 6.716-15 15-15h30c24.813 0 45 20.187 45 45v60c0 24.813-20.187 45-45 45z" fill="#fabe2c"/></g><path d="m421.5 45v422c0 24.81-20.19 45-45 45h-271l-28-262 28-250h271c24.81 0 45 20.19 45 45z" fill="#65d6a9"/><path d="m421.5 45v422c0 24.81-20.19 45-45 45h-135.5v-512h135.5c24.81 0 45 20.19 45 45z" fill="#26bfa6"/><path d="m45.5 0c-8.284 0-15 6.716-15 15v482c0 8.284 6.716 15 15 15h60v-512z" fill="#613d5c"/><g><g><g><g><path d="m364.39 304.89-42.43-42.43c-5.86-5.86-15.36-5.86-21.21 0-5.874 5.854-15.348 5.852-21.22 0l-21.21-21.21c-5.85-5.85-5.85-15.37 0-21.22 5.86-5.86 5.86-15.35 0-21.21l-42.43-42.43c-5.85-5.85-15.35-5.85-21.21 0l-21.21 21.22c-29.25 29.24-29.25 76.82 0 106.06l63.64 63.64c1.26 1.26 2.56 2.47 3.89 3.62 29.43 25.57 74.19 24.36 102.17-3.62l21.22-21.21c5.85-5.86 5.85-15.36 0-21.21z" fill="#613d5c"/></g></g></g></g><path d="m364.39 326.1-21.22 21.21c-27.98 27.98-72.74 29.19-102.17 3.62v-169.43l17.32 17.32c5.86 5.86 5.86 15.35 0 21.21-5.85 5.85-5.85 15.37 0 21.22l21.21 21.21c5.874 5.854 15.348 5.852 21.22 0 5.85-5.86 15.35-5.86 21.21 0l42.43 42.43c5.85 5.85 5.85 15.35 0 21.21z" fill="#4b2746"/></g></svg>