<svg id="Capa_1" enable-background="new 0 0 512 512" height="512" viewBox="0 0 512 512" width="512" xmlns="http://www.w3.org/2000/svg"><g><path d="m121 0h-15c-24.813 0-45 20.187-45 45v422c0 24.813 20.187 45 45 45h15c8.284 0 15-6.716 15-15v-482c0-8.284-6.716-15-15-15z" fill="#4b2746"/><path d="m451 182-30 68 30 82v165c0 8.28-6.72 15-15 15h-315v-512h315c8.28 0 15 6.72 15 15z" fill="#ffd400"/><path d="m451 182-30 68 30 82v165c0 8.28-6.72 15-15 15h-150v-512h150c8.28 0 15 6.72 15 15z" fill="#fabe2c"/><path d="m421 73.11v365.78c-21.09 5.42-37.69 22.02-43.11 43.11h-183.78c-5.42-21.09-22.02-37.69-43.11-43.11v-365.78c21.09-5.42 37.69-22.02 43.11-43.11h183.78c5.42 21.09 22.02 37.69 43.11 43.11z" fill="#613d5c"/><path d="m421 73.11v365.78c-21.09 5.42-37.69 22.02-43.11 43.11h-91.89v-452h91.89c5.42 21.09 22.02 37.69 43.11 43.11z" fill="#4b2746"/><path d="m388.43 182c-12.02 0-23.32 4.68-31.82 13.18l-16.61 16.82-19 40 19 50 16.61 16.82c8.5 8.5 19.8 13.18 31.82 13.18h62.57v-150z" fill="#ff9f00"/><path d="m340 212v90h-84c-8.28 0-15-6.72-15-15v-60c0-8.28 6.72-15 15-15z" fill="#ffd400"/><path d="m286 212h54v90h-54z" fill="#fabe2c"/><path d="m271 242h39v30h-39z" fill="#fabe2c"/><path d="m286 242h24v30h-24z" fill="#ff9f00"/></g></svg>