<svg id="Capa_1" enable-background="new 0 0 512 512" height="512" viewBox="0 0 512 512" width="512" xmlns="http://www.w3.org/2000/svg"><g><g><path d="m76 15h345v60h-345z" fill="#fff7cc"/><path d="m286 15h135v60h-135z" fill="#ffe6b3"/><path d="m436 0h-150-195c-16.5 0-30 13.5-30 30s13.5 60 30 60l15-30c-8.284 0-15-6.716-15-15s6.716-15 15-15h180 150c8.401 0 15-6.599 15-15s-6.599-15-15-15z" fill="#4b2746"/><path d="m451 15c0-8.401-6.599-15-15-15h-150v30h150c8.401 0 15-6.599 15-15z" fill="#351b33"/><path d="m451 75c0-8.291-6.709-15-15-15h-150-150l-45 23.124v395.126l45 33.75h150 150c8.291 0 15-6.709 15-15z" fill="#65d6a9"/><path d="m436 512c8.291 0 15-6.709 15-15v-422c0-8.291-6.709-15-15-15h-150v452z" fill="#26bfa6"/><path d="m91 60c-16.5 0-30-13.5-30-30v30 407c0 24.814 20.186 45 45 45h30v-452z" fill="#613d5c"/></g><g><path d="m376 152c-8.27 0-15-6.73-15-15 0-8.28-6.72-15-15-15h-120c-8.28 0-15 6.72-15 15 0 8.27-6.73 15-15 15-8.28 0-15 6.72-15 15v240c0 8.28 6.72 15 15 15 8.27 0 15 6.73 15 15 0 8.28 6.72 15 15 15h120c8.28 0 15-6.72 15-15 0-8.27 6.73-15 15-15 8.28 0 15-6.72 15-15v-240c0-8.28-6.72-15-15-15z" fill="#fff7cc"/></g><path d="m391 167v240c0 8.28-6.72 15-15 15-8.27 0-15 6.73-15 15 0 8.28-6.72 15-15 15h-60v-330h60c8.28 0 15 6.72 15 15 0 8.27 6.73 15 15 15 8.28 0 15 6.72 15 15z" fill="#ffe6b3"/><g><path d="m331 227c0 8.28-6.72 15-15 15h-60c-8.28 0-15-6.72-15-15s6.72-15 15-15h60c8.28 0 15 6.72 15 15z" fill="#613d5c"/></g><g><path d="m331 287c0 8.28-6.72 15-15 15h-60c-8.28 0-15-6.72-15-15s6.72-15 15-15h60c8.28 0 15 6.72 15 15z" fill="#613d5c"/></g><g><path d="m331 347c0 8.28-6.72 15-15 15h-60c-8.28 0-15-6.72-15-15s6.72-15 15-15h60c8.28 0 15 6.72 15 15z" fill="#613d5c"/></g><g fill="#4b2746"><path d="m331 347c0 8.28-6.72 15-15 15h-30v-30h30c8.28 0 15 6.72 15 15z"/><path d="m331 287c0 8.28-6.72 15-15 15h-30v-30h30c8.28 0 15 6.72 15 15z"/><path d="m316 242h-30v-30h30c8.28 0 15 6.72 15 15s-6.72 15-15 15z"/></g></g></svg>