<svg id="Capa_1" enable-background="new 0 0 512 512" height="512" viewBox="0 0 512 512" width="512" xmlns="http://www.w3.org/2000/svg"><g><path d="m512 376v60c0 8.28-6.72 15-15 15h-482c-8.28 0-15-6.72-15-15v-60c0-8.28 6.72-15 15-15h482c8.28 0 15 6.72 15 15z" fill="#613d5c"/><path d="m512 376v60c0 8.28-6.72 15-15 15h-241v-90h241c8.28 0 15 6.72 15 15z" fill="#4b2746"/><path d="m136 316c0-6.776 0 26.794 0-60 0-6.776 0 26.794 0-60 0-6.776 0 26.794 0-60l15-75h-136c-8.28 0-15 6.72-15 15v300c0 8.28 6.72 15 15 15h136c-1.597-7.987 7.207 36.037-15-75z" fill="#ffca80"/><path d="m497 61h-181c-24.51 0-46.31 11.82-60 30.05-13.69-18.23-35.49-30.05-60-30.05h-45l-45 45 30 30-30 30 30 30-30 30 30 30-30 30 30 30-30 30 45 45h45c16.03 0 30.5 8.43 38.71 22.54 2.69 4.62 7.63 7.46 12.97 7.46h16.64c5.34 0 10.28-2.84 12.97-7.46 8.21-14.11 22.68-22.54 38.71-22.54h181c8.28 0 15-6.72 15-15v-300c0-8.28-6.72-15-15-15z" fill="#fff7cc"/><path d="m512 76v300c0 8.28-6.72 15-15 15h-181c-16.03 0-30.5 8.43-38.71 22.54-2.69 4.62-7.63 7.46-12.97 7.46h-8.32v-329.95c13.69-18.23 35.49-30.05 60-30.05h181c8.28 0 15 6.72 15 15z" fill="#ffe6b3"/></g></svg>