<svg id="Capa_1" enable-background="new 0 0 512.023 512.023" height="512" viewBox="0 0 512.023 512.023" width="512" xmlns="http://www.w3.org/2000/svg"><g><g><path d="m346.011 92h-240c-8.28 0-15 6.72-15 15v390c0 12.35 14.13 19.41 24 12l111-83.25 111 83.25c9.81 7.37 24 .43 24-12v-390c0-8.28-6.72-15-15-15zm-90 90h-60c-8.28 0-15-6.72-15-15s6.72-15 15-15h60c8.28 0 15 6.72 15 15s-6.72 15-15 15z" fill="#fabe2c"/></g><path d="m361.011 107v390c0 12.43-14.19 19.37-24 12l-111-83.25v-243.75h30c8.28 0 15-6.72 15-15s-6.72-15-15-15h-30v-60h120c8.28 0 15 6.72 15 15z" fill="#ff9f00"/><g><path d="m291.321 250.08-35.84-5.21-16.02-32.47c-2.53-5.12-7.74-8.36-13.45-8.36s-10.92 3.24-13.45 8.36l-16.02 32.47-35.84 5.21c-12.28 1.78-17.2 16.92-8.31 25.58l25.93 25.27-6.12 35.69c-2.1 12.24 10.78 21.58 21.76 15.81l32.05-16.85 32.05 16.85c10.93 5.75 23.87-3.54 21.76-15.81l-6.12-35.69 25.93-25.27c8.89-8.66 3.97-23.8-8.31-25.58z" fill="#fff7cc"/></g><path d="m299.631 275.66-25.93 25.27 6.12 35.69c2.11 12.27-10.83 21.56-21.76 15.81l-32.05-16.85v-131.54c5.71 0 10.92 3.24 13.45 8.36l16.02 32.47 35.84 5.21c12.28 1.78 17.2 16.92 8.31 25.58z" fill="#ffe6b3"/><g><path d="m421.011 107v120c0 8.28-6.72 15-15 15s-15-6.72-15-15v-120c0-41.74-34.35-77-75-77s-75 35.26-75 77v60c0 8.28-6.72 15-15 15s-15-6.72-15-15v-60c0-19.71 5.46-38.48 15-54.65 18.27-30.97 51.51-52.35 90-52.35 58.62 0 105 49.58 105 107z" fill="#613d5c"/></g><path d="m421.011 107v120c0 8.28-6.72 15-15 15s-15-6.72-15-15v-120c0-41.74-34.35-77-75-77s-75 35.26-75 77v60c0 8.28-6.72 15-15 15v-129.65c18.27-30.97 51.51-52.35 90-52.35 58.62 0 105 49.58 105 107z" fill="#4b2746"/></g></svg>