<svg id="Capa_1" enable-background="new 0 0 512 512" height="512" viewBox="0 0 512 512" width="512" xmlns="http://www.w3.org/2000/svg"><g><path d="m497 31c8.28 0 15 6.72 15 15v390c0 8.28-6.72 15-15 15h-181c-16.03 0-30.5 8.43-38.71 22.54-2.69 4.62-7.63 7.46-12.97 7.46h-16.64c-5.34 0-10.28-2.84-12.97-7.46-8.21-14.11-22.68-22.54-38.71-22.54h-181c-8.28 0-15-6.72-15-15v-390c0-8.28 6.72-15 15-15h30l211 30.05 211-30.05z" fill="#613d5c"/><path d="m497 31c8.28 0 15 6.72 15 15v390c0 8.28-6.72 15-15 15h-181c-16.03 0-30.5 8.43-38.71 22.54-2.69 4.62-7.63 7.46-12.97 7.46h-8.32v-419.95l211-30.05z" fill="#4b2746"/><path d="m316 31c-24.51 0-46.31 11.82-60 30.05-13.69-18.23-35.49-30.05-60-30.05h-151c-8.284 0-15 6.716-15 15v360c0 8.284 6.716 15 15 15h151c23.85 0 45.6 11.07 59.72 30h.56c14.12-18.94 35.87-30 59.72-30h151c8.284 0 15-6.716 15-15v-360c0-8.284-6.716-15-15-15z" fill="#fff7cc"/><path d="m467 31c8.284 0 15 6.716 15 15v360c0 8.284-6.716 15-15 15h-151c-23.85 0-45.6 11.06-59.72 30h-.28v-389.95c13.69-18.23 35.49-30.05 60-30.05z" fill="#ffe6b3"/><g><circle cx="166" cy="106" fill="#613d5c" r="15"/></g><g><circle cx="166" cy="166" fill="#613d5c" r="15"/></g><g><circle cx="106" cy="106" fill="#613d5c" r="15"/></g><g><circle cx="106" cy="226" fill="#613d5c" r="15"/></g><g><circle cx="166" cy="316" fill="#613d5c" r="15"/></g><g><circle cx="106" cy="316" fill="#613d5c" r="15"/></g><g><circle cx="106" cy="376" fill="#613d5c" r="15"/></g><g><circle cx="406" cy="316" fill="#4b2746" r="15"/></g><g><circle cx="346" cy="316" fill="#4b2746" r="15"/></g><g><circle cx="346" cy="376" fill="#4b2746" r="15"/></g><g><circle cx="406" cy="376" fill="#4b2746" r="15"/></g><g><circle cx="346" cy="166" fill="#4b2746" r="15"/></g><g><circle cx="406" cy="166" fill="#4b2746" r="15"/></g><g><circle cx="346" cy="106" fill="#4b2746" r="15"/></g><g><circle cx="346" cy="226" fill="#4b2746" r="15"/></g></g></svg>