<svg id="Capa_1" enable-background="new 0 0 512 512" height="512" viewBox="0 0 512 512" width="512" xmlns="http://www.w3.org/2000/svg"><g><path d="m512 347c0 8.28-6.72 15-15 15h-422c-41.35 0-75-33.65-75-75s33.65-75 75-75h422c8.28 0 15 6.72 15 15s-6.72 15-15 15h-21.32l-34.18 45 34.18 45h21.32c8.28 0 15 6.72 15 15z" fill="#ffd400"/><path d="m512 347c0 8.28-6.72 15-15 15h-241v-150h241c8.28 0 15 6.72 15 15s-6.72 15-15 15h-21.32l-34.18 45 34.18 45h21.32c8.28 0 15 6.72 15 15z" fill="#fabe2c"/><path d="m451 107c0 57.9-47.1 105-105 105h-270c-8.28 0-15-6.72-15-15s6.72-15 15-15h18.95l54.05-76-54.05-76h-18.95c-8.28 0-15-6.72-15-15s6.72-15 15-15h270c57.9 0 105 49.1 105 107z" fill="#65d6a9"/><path d="m451 107c0 57.9-47.1 105-105 105h-90v-212h90c57.9 0 105 49.1 105 107z" fill="#26bfa6"/><path d="m467.85 302c1.28 10.24 3.89 20.34 7.83 30h-400.68c-24.81 0-45-20.19-45-45s20.19-45 45-45h400.68c-3.94 9.66-6.55 19.76-7.83 30l-26.35 15z" fill="#fff7cc"/><path d="m467.85 302c1.28 10.24 3.89 20.34 7.83 30h-219.68v-90h219.68c-3.94 9.66-6.55 19.76-7.83 30l-26.35 15z" fill="#ffe6b3"/><g><path d="m467.85 302h-331.85c-8.28 0-15-6.72-15-15s6.72-15 15-15h331.85c-1.26 9.95-1.26 20.05 0 30z" fill="#ffe6b3"/></g><path d="m467.85 302h-211.85v-30h211.85c-1.26 9.95-1.26 20.05 0 30z" fill="#ffca80"/><path d="m512 497c0 8.28-6.72 15-15 15h-422c-41.35 0-75-33.65-75-75s33.65-75 75-75h422c8.28 0 15 6.72 15 15s-6.72 15-15 15h-21.32l-34.18 45 34.18 45h21.32c8.28 0 15 6.72 15 15z" fill="#ff641a"/><path d="m512 497c0 8.28-6.72 15-15 15h-241v-150h241c8.28 0 15 6.72 15 15s-6.72 15-15 15h-21.32l-34.18 45 34.18 45h21.32c8.28 0 15 6.72 15 15z" fill="#f03800"/><path d="m467.85 452c1.28 10.24 3.89 20.34 7.83 30h-400.68c-24.81 0-45-20.19-45-45s20.19-45 45-45h400.68c-3.94 9.66-6.55 19.76-7.83 30l-26.35 15z" fill="#fff7cc"/><path d="m467.85 452c1.28 10.24 3.89 20.34 7.83 30h-219.68v-90h219.68c-3.94 9.66-6.55 19.76-7.83 30l-26.35 15z" fill="#ffe6b3"/><g><path d="m467.85 452h-331.85c-8.28 0-15-6.72-15-15s6.72-15 15-15h331.85c-1.26 9.95-1.26 20.05 0 30z" fill="#ffe6b3"/></g><path d="m467.85 452h-211.85v-30h211.85c-1.26 9.95-1.26 20.05 0 30z" fill="#ffca80"/><path d="m421 107c0 41.35-33.65 75-75 75h-251.05c5.58-19.41 8.95-39.62 10.1-60l22.95-15-22.84-15c-1.04-21.06-4.45-41.96-10.21-62h251.05c40.65 0 75 35.26 75 77z" fill="#fff7cc"/><path d="m421 107c0 41.35-33.65 75-75 75h-90v-152h90c40.65 0 75 35.26 75 77z" fill="#ffe6b3"/><g><g><g><path d="m361 107c0 8.28-6.72 15-15 15h-240.95c.57-9.98.61-20.01.11-30h240.84c8.28 0 15 6.72 15 15z" fill="#ffe6b3"/></g></g></g><path d="m361 107c0 8.28-6.72 15-15 15h-90v-30h90c8.28 0 15 6.72 15 15z" fill="#ffca80"/></g></svg>