<svg id="Capa_1" enable-background="new 0 0 512 512" height="512" viewBox="0 0 512 512" width="512" xmlns="http://www.w3.org/2000/svg"><g><g><path d="m331 15c0-8.28-6.72-15-15-15h-240c-8.28 0-15 6.72-15 15v482c0 8.28 6.72 15 15 15h240c8.28 0 15-6.72 15-15z" fill="#613d5c"/><path d="m316 0c8.28 0 15 6.72 15 15v482c0 8.28-6.72 15-15 15h-120v-512z" fill="#4b2746"/><path d="m91 30h210v452h-210z" fill="#fabe2c"/><path d="m196 30h105v452h-105z" fill="#ff9f00"/></g><g><circle cx="196" cy="77" fill="#613d5c" r="15"/></g><path d="m401.36 140.08 19.64 4.74c-6.45-2.03-13.01-3.61-19.64-4.74zm49.64 26.92c0-5.68-3.21-10.88-8.29-13.42-7.03-3.52-14.29-6.44-21.71-8.76l-105 47.98-7 3.2-98-51.18c-7.42 2.32-14.68 5.24-21.71 8.76-5.08 2.54-8.29 7.74-8.29 13.42v180c0 11.13 11.74 18.4 21.71 13.42 33.37-16.69 73.21-16.69 106.58 0 2.12 1.08 4.43 1.59 6.71 1.58 2.34 0 4.67-.54 6.71-1.58 33.37-16.69 73.21-16.69 106.58 0 9.96 4.97 21.71-2.27 21.71-13.42z" fill="#613d5c"/><path d="m401.36 140.08c6.63 1.13 13.19 2.71 19.64 4.74z" fill="#fff7cc"/><path d="m451 167v180c0 11.15-11.75 18.39-21.71 13.42-33.37-16.69-73.21-16.69-106.58 0-2.04 1.04-4.37 1.58-6.71 1.58v-169.2l105-47.98c7.42 2.32 14.68 5.24 21.71 8.76 5.08 2.54 8.29 7.74 8.29 13.42z" fill="#4b2746"/><path d="m421 144.82v180c-14.5-4.55-29.74-6.92-45-6.92-20.64 0-41.23 4.32-60 12.54-18.77-8.22-39.36-12.54-60-12.54-15.26 0-30.5 2.37-45 6.92v-180c34.29-10.79 71.84-8.91 105 5.63 33.16-14.54 70.71-16.42 105-5.63z" fill="#fff7cc"/><path d="m421 144.82v180c-14.5-4.55-29.74-6.92-45-6.92-20.64 0-41.23 4.32-60 12.54v-179.99c33.16-14.54 70.71-16.42 105-5.63z" fill="#ffe6b3"/><g><path d="m241 437c0 8.28-6.72 15-15 15h-60c-8.28 0-15-6.72-15-15s6.72-15 15-15h60c8.28 0 15 6.72 15 15z" fill="#613d5c"/></g><g fill="#4b2746"><path d="m196 92v-30c8.28 0 15 6.72 15 15s-6.72 15-15 15z"/><path d="m241 437c0 8.28-6.72 15-15 15h-30v-30h30c8.28 0 15 6.72 15 15z"/></g></g></svg>