<svg id="Capa_1" enable-background="new 0 0 512 512" height="512" viewBox="0 0 512 512" width="512" xmlns="http://www.w3.org/2000/svg"><g><path d="m466.5 377v120c0 8.28-6.72 15-15 15h-360c-8.28 0-15-6.72-15-15v-120c0-1.23.15-2.45.45-3.64l30-120c2.01-8.04 10.16-12.92 18.19-10.91h292.72c8.03-2.01 16.18 2.87 18.19 10.91l30 120c.3 1.19.45 2.41.45 3.64z" fill="#ff641a"/><path d="m466.5 377v120c0 8.28-6.72 15-15 15h-180v-269.55h146.36c8.03-2.01 16.18 2.87 18.19 10.91l30 120c.3 1.19.45 2.41.45 3.64z" fill="#f03800"/><path d="m376.5 257c0 41.35-33.64 75-75 75h-60c-41.36 0-75-33.65-75-75 0-8.28 6.72-15 15-15h180c8.28 0 15 6.72 15 15z" fill="#fff7cc"/><path d="m376.5 257c0 41.35-33.64 75-75 75h-30v-90h90c8.28 0 15 6.72 15 15z" fill="#ffe6b3"/><g><path d="m30.5 302c-8.284 0-15-6.716-15-15v-30c0-24.813 20.187-45 45-45h31c8.284 0 15 6.716 15 15s-6.716 15-15 15h-31c-8.271 0-15 6.729-15 15v30c0 8.284-6.716 15-15 15z" fill="#4b2746"/></g><g><g><g><path d="m481.5 242h-30c-8.284 0-15-6.716-15-15s6.716-15 15-15h30c8.284 0 15 6.716 15 15s-6.716 15-15 15z" fill="#351b33"/></g></g></g><path d="m406.5 105v92c0 8.28-6.72 15-15 15h-240c-8.28 0-15-6.72-15-15v-182c0-8.28 6.72-15 15-15h149.99.01l29 76z" fill="#fff7cc"/><path d="m406.5 105v92c0 8.28-6.72 15-15 15h-120v-212h29.99.01l29 76z" fill="#ffe6b3"/><g><circle cx="211.5" cy="377" fill="#613d5c" r="15"/></g><g><circle cx="271.5" cy="377" fill="#613d5c" r="15"/></g><path d="m286.5 377c0 8.28-6.72 15-15 15v-30c8.28 0 15 6.72 15 15z" fill="#4b2746"/><g><circle cx="331.5" cy="377" fill="#4b2746" r="15"/></g><g><circle cx="391.5" cy="377" fill="#4b2746" r="15"/></g><g><circle cx="151.5" cy="377" fill="#613d5c" r="15"/></g><g><circle cx="151.5" cy="437" fill="#613d5c" r="15"/></g><g><circle cx="391.5" cy="437" fill="#4b2746" r="15"/></g><g><path d="m346.5 437c0 8.28-6.72 15-15 15h-120c-8.28 0-15-6.72-15-15s6.72-15 15-15h120c8.28 0 15 6.72 15 15z" fill="#613d5c"/></g><path d="m346.5 437c0 8.28-6.72 15-15 15h-60v-30h60c8.28 0 15 6.72 15 15z" fill="#4b2746"/><g><path d="m451.5 182h-360c-8.28 0-15 6.72-15 15v60c0 8.28 6.72 15 15 15h360c8.28 0 15-6.72 15-15v-60c0-8.28-6.72-15-15-15z" fill="#613d5c"/></g><path d="m466.5 197v60c0 8.28-6.72 15-15 15h-180v-90h180c8.28 0 15 6.72 15 15z" fill="#4b2746"/><path d="m406.5 105c.001-4.06-1.709-7.926-4.396-10.609l-89.995-89.995c-2.692-2.692-6.521-4.394-10.609-4.396v90c0 8.284 6.716 15 15 15z" fill="#ffca80"/></g></svg>