<svg id="Capa_1" enable-background="new 0 0 512 512" height="512" viewBox="0 0 512 512" width="512" xmlns="http://www.w3.org/2000/svg"><g><g><path d="m467 302h-15l-15 90-15-90h-15c-24.81 0-45 20.19-45 45v90c0 41.35 33.64 75 75 75s75-33.65 75-75v-90c0-24.81-20.19-45-45-45z" fill="#613d5c"/></g><path d="m512 347v90c0 41.35-33.64 75-75 75v-120l15-90h15c24.81 0 45 20.19 45 45z" fill="#4b2746"/><g><path d="m452 257v45h-30v-45c0-24.81-20.19-45-45-45s-45 20.19-45 45v150c0 41.35-33.64 75-75 75s-75-33.65-75-75v-60c0-8.28 6.72-15 15-15s15 6.72 15 15v60c0 24.81 20.19 45 45 45s45-20.19 45-45v-150c0-41.35 33.64-75 75-75s75 33.65 75 75z" fill="#dfe7f4"/><path d="m452 302v75c0 8.28-6.72 15-15 15s-15-6.72-15-15v-75z" fill="#4b2746"/><path d="m452 302v75c0 8.28-6.72 15-15 15v-90z" fill="#351b33"/></g><g><path d="m257 60h-16l-32-15h-164c-8.27 0-15-6.73-15-15 0-8.28-6.72-15-15-15s-15 6.72-15 15v287c0 24.81 20.19 45 45 45h212c8.28 0 15-6.72 15-15v-272c0-8.28-6.72-15-15-15z" fill="#cb75f6"/></g><path d="m272 75v272c0 8.28-6.72 15-15 15h-121v-317h73l32 15h16c8.28 0 15 6.72 15 15z" fill="#b760ea"/><g><g><path d="m271 15c0 8.28-6.72 15-15 15h-15l-105 14.93-106 15.07c-16.54 0-30-13.46-30-30s13.46-30 30-30h226c8.28 0 15 6.72 15 15z" fill="#613d5c"/><path d="m271 15c0 8.28-6.72 15-15 15h-15l-105 14.93v-44.93h120c8.28 0 15 6.72 15 15z" fill="#4b2746"/><path d="m241 30v30h-211c-8.27 0-15-6.73-15-15s6.73-15 15-15z" fill="#fff7cc"/><path d="m136 30h105v30h-105z" fill="#ffe6b3"/></g></g></g></svg>