<svg id="Capa_1" enable-background="new 0 0 492.432 492.432" height="512" viewBox="0 0 492.432 492.432" width="512" xmlns="http://www.w3.org/2000/svg"><g><path d="m441.216 177.432v300h-390v-300c0-8.28 6.72-15 15-15h360c8.28 0 15 6.72 15 15z" fill="#ffe6b3"/><path d="m441.216 177.432v300h-195v-315h180c8.28 0 15 6.72 15 15z" fill="#ffca80"/><path d="m111.216 175.222h269v300h-269z" fill="#fff7cc"/><path d="m246.216 175.222h134v300h-134z" fill="#ffe6b3"/><path d="m246.216 282.432c41.421 0 75 33.579 75 75v120h-150v-120c0-41.421 33.579-75 75-75z" fill="#613d5c"/><path d="m321.216 357.432v120h-75v-195c41.35 0 75 33.65 75 75z" fill="#4b2746"/><g><path d="m471.216 477.432c0 8.29-6.72 15-15 15h-420c-8.28 0-15-6.71-15-15 0-8.28 6.72-15 15-15h420c8.28 0 15 6.72 15 15z" fill="#65d6a9"/></g><path d="m471.216 477.432c0 8.29-6.72 15-15 15h-210v-30h210c8.28 0 15 6.72 15 15z" fill="#26bfa6"/><path d="m471.216 87.432v90c0 8.29-6.72 15-15 15h-420c-8.28 0-15-6.71-15-15v-90c0-8.28 6.72-15 15-15h420c8.28 0 15 6.72 15 15z" fill="#ff641a"/><path d="m471.216 87.432v90c0 8.29-6.72 15-15 15h-210v-120h210c8.28 0 15 6.72 15 15z" fill="#f03800"/><g><path d="m291.216 237.432c0 8.29-6.72 15-15 15h-60c-8.28 0-15-6.71-15-15 0-8.28 6.72-15 15-15h60c8.28 0 15 6.72 15 15z" fill="#613d5c"/></g><path d="m291.216 237.432c0 8.29-6.72 15-15 15h-30v-30h30c8.28 0 15 6.72 15 15z" fill="#4b2746"/><path d="m316.826 16.832c-19.33-19.33-48.7-21.85-70.61-8.38-21.89-13.46-51.26-10.97-70.61 8.38-2.81 2.81-4.39 6.63-4.39 10.6v90c0 13.32 16.17 20.05 25.61 10.61 10.71-10.72 28.06-10.72 38.78 0 .03.02.05.04.08.07.34.33.68.65 1.05.95 2.76 2.25 6.12 3.37 9.48 3.37 3.81 0 7.61-1.44 10.52-4.31.02-.03.06-.05.09-.08 10.71-10.72 28.06-10.72 38.78 0 9.42 9.42 25.61 2.74 25.61-10.61v-90c0-3.97-1.58-7.79-4.39-10.6z" fill="#fff7cc"/><path d="m321.216 27.432v90c0 13.35-16.19 20.03-25.61 10.61-10.72-10.72-28.07-10.72-38.78 0-.03.03-.07.05-.09.08-2.91 2.87-6.71 4.31-10.52 4.31v-123.98c21.91-13.47 51.28-10.95 70.61 8.38 2.81 2.81 4.39 6.63 4.39 10.6z" fill="#ffe6b3"/></g></svg>