<svg id="Capa_1" enable-background="new 0 0 511.998 511.998" height="512" viewBox="0 0 511.998 511.998" width="512" xmlns="http://www.w3.org/2000/svg"><g><g><g><g><path d="m142.277 369.721c-5.858-5.858-5.858-15.355 0-21.213l34.835-34.835c5.857-5.858 15.355-5.858 21.213 0s5.858 15.355 0 21.213l-34.835 34.835c-5.857 5.857-15.355 5.858-21.213 0z" fill="#dfe7f4"/></g></g></g><g><path d="m316.998 390c-107.523 0-195-87.477-195-195s87.477-195 195-195 195 87.477 195 195-87.477 195-195 195z" fill="#613d5c"/><path d="m316.998 0v390c107.523 0 195-87.477 195-195s-87.477-195-195-195z" fill="#4b2746"/><circle cx="316.998" cy="195" fill="#fabe2c" r="165"/><path d="m481.998 195c0 90.98-74.02 165-165 165v-330c90.98 0 165 74.02 165 165z" fill="#ff9f00"/></g><g><path d="m376.998 135h-90c-8.27 0-15-6.73-15-15 0-8.28-6.72-15-15-15s-15 6.72-15 15v135c0 24.81 20.19 45 45 45h90c8.28 0 15-6.72 15-15v-135c0-8.28-6.72-15-15-15z" fill="#613d5c"/></g><path d="m391.998 150v135c0 8.28-6.72 15-15 15h-60v-165h60c8.28 0 15 6.72 15 15z" fill="#4b2746"/><g><path d="m391.998 105v45h-120c-16.54 0-30-13.46-30-30s13.46-30 30-30h105c8.28 0 15 6.72 15 15z" fill="#fff7cc"/></g><path d="m391.998 105v45h-75v-60h60c8.28 0 15 6.72 15 15z" fill="#ffe6b3"/><g><path d="m68.031 507.607-63.64-63.64c-6.277-6.277-5.752-16.603 1.108-22.216l116.673-95.459c5.965-4.879 14.657-4.445 20.105 1.003l42.426 42.426c5.449 5.449 5.883 14.141 1.003 20.105l-95.459 116.673c-5.621 6.869-15.949 7.376-22.216 1.108z" fill="#65d6a9"/></g></g></svg>