<svg id="Capa_1" enable-background="new 0 0 512 512" height="512" viewBox="0 0 512 512" width="512" xmlns="http://www.w3.org/2000/svg"><g><g><path d="m497 60h-61c-8.284 0-15-6.716-15-15s6.716-15 15-15h61c8.284 0 15 6.716 15 15s-6.716 15-15 15z" fill="#351b33"/></g><g><path d="m497 482h-61c-8.284 0-15-6.716-15-15s6.716-15 15-15h61c8.284 0 15 6.716 15 15s-6.716 15-15 15z" fill="#351b33"/></g><g><path d="m76 60h-61c-8.284 0-15-6.716-15-15s6.716-15 15-15h61c8.284 0 15 6.716 15 15s-6.716 15-15 15z" fill="#4b2746"/></g><g><path d="m76 482h-61c-8.284 0-15-6.716-15-15s6.716-15 15-15h61c8.284 0 15 6.716 15 15s-6.716 15-15 15z" fill="#4b2746"/></g><path d="m416.61 297.61-5.35 5.34c5.69 2.13 9.74 7.62 9.74 14.05v120c0 8.28-6.72 15-15 15h-300c-8.28 0-15-6.72-15-15v-210c0-6.43 4.05-11.92 9.74-14.05l-5.35-5.34c-2.81-2.82-4.39-6.63-4.39-10.61v-122c0-8.28 6.72-15 15-15h300c8.28 0 15 6.72 15 15v212c0 3.98-1.58 7.79-4.39 10.61z" fill="#fff7cc"/><path d="m416.61 297.61-5.35 5.34c5.69 2.13 9.74 7.62 9.74 14.05v120c0 8.28-6.72 15-15 15h-150v-392h150c8.28 0 15 6.72 15 15v212c0 3.98-1.58 7.79-4.39 10.61z" fill="#ffe6b3"/><g><path d="m436 0h-360c-8.28 0-15 6.72-15 15v60c0 8.28 6.72 15 15 15h360c8.28 0 15-6.72 15-15v-60c0-8.28-6.72-15-15-15z" fill="#ff641a"/></g><g><path d="m15 90c-8.284 0-15-6.716-15-15v-60c0-8.284 6.716-15 15-15s15 6.716 15 15v60c0 8.284-6.716 15-15 15z" fill="#613d5c"/></g><g><path d="m497 90c-8.284 0-15-6.716-15-15v-60c0-8.284 6.716-15 15-15s15 6.716 15 15v60c0 8.284-6.716 15-15 15z" fill="#4b2746"/></g><g><path d="m436 422h-360c-8.28 0-15 6.72-15 15v60c0 8.28 6.72 15 15 15h360c8.28 0 15-6.72 15-15v-60c0-8.28-6.72-15-15-15z" fill="#ff641a"/></g><path d="m451 15v60c0 8.28-6.72 15-15 15h-180v-90h180c8.28 0 15 6.72 15 15z" fill="#f03800"/><path d="m451 437v60c0 8.28-6.72 15-15 15h-180v-90h180c8.28 0 15 6.72 15 15z" fill="#f03800"/><g><path d="m15 512c-8.284 0-15-6.716-15-15v-60c0-8.284 6.716-15 15-15s15 6.716 15 15v60c0 8.284-6.716 15-15 15z" fill="#613d5c"/></g><g><path d="m497 512c-8.284 0-15-6.716-15-15v-60c0-8.284 6.716-15 15-15s15 6.716 15 15v60c0 8.284-6.716 15-15 15z" fill="#4b2746"/></g><g><path d="m331 167c0 8.28-6.72 15-15 15h-120c-8.28 0-15-6.72-15-15s6.72-15 15-15h120c8.28 0 15 6.72 15 15z" fill="#613d5c"/></g><g><path d="m331 257c0 8.28-6.72 15-15 15h-120c-8.28 0-15-6.72-15-15s6.72-15 15-15h120c8.28 0 15 6.72 15 15z" fill="#613d5c"/></g><g><path d="m331 347c0 8.28-6.72 15-15 15h-120c-8.28 0-15-6.72-15-15s6.72-15 15-15h120c8.28 0 15 6.72 15 15z" fill="#613d5c"/><g fill="#4b2746"><path d="m331 347c0 8.28-6.72 15-15 15h-60v-30h60c8.28 0 15 6.72 15 15z"/><path d="m331 257c0 8.28-6.72 15-15 15h-60v-30h60c8.28 0 15 6.72 15 15z"/><path d="m316 182h-60v-30h60c8.28 0 15 6.72 15 15s-6.72 15-15 15z"/></g></g></g></svg>