<svg id="Capa_1" enable-background="new 0 0 512.004 512.004" height="512" viewBox="0 0 512.004 512.004" width="512" xmlns="http://www.w3.org/2000/svg"><g><path d="m481.002 225v272c0 9.97-9.56 17.15-19.12 14.42-66-18.85-135.76-18.85-201.76 0-1.35.39-2.74.57-4.12.57-1.4 0-2.79-.19-4.12-.57-66-18.85-135.76-18.85-201.76 0-9.57 2.73-19.12-4.45-19.12-14.42v-272c0-6.7 4.44-12.58 10.88-14.42 6.32-1.81 12.7-3.46 19.12-4.94h390c6.42 1.48 12.8 3.13 19.12 4.94 6.44 1.84 10.88 7.72 10.88 14.42z" fill="#613d5c"/><path d="m481.002 225v272c0 9.97-9.56 17.15-19.12 14.42-66-18.85-135.76-18.85-201.76 0-1.35.39-2.74.57-4.12.57v-306.35h195c6.42 1.48 12.8 3.13 19.12 4.94 6.44 1.84 10.88 7.72 10.88 14.42z" fill="#4b2746"/><path d="m451.002 205.64v271.98c-64.3-14.98-131.25-13.66-195 3.8-62.92-17.26-129.92-18.95-195-3.8v-271.98c16.82-3.92 33.93-6.74 51.08-8.43h287.84c17.15 1.69 34.26 4.51 51.08 8.43z" fill="#fff7cc"/><path d="m451.002 205.64v271.98c-64.3-14.98-131.25-13.66-195 3.8v-284.21h143.92c17.15 1.69 34.26 4.51 51.08 8.43z" fill="#ffe6b3"/><g><path d="m256.002 0c-90.98 0-165 74.02-165 165s74.02 165 165 165 165-74.02 165-165-74.02-165-165-165z" fill="#65d6a9"/><path d="m421.002 165c0 90.98-74.02 165-165 165v-330c90.98 0 165 74.02 165 165z" fill="#26bfa6"/><path d="m205.882 39.65c-6.746 13.032-11.804 28.124-15.36 42.36-10.652-2.757-21.3-6.404-31.24-11.12 13.08-13.43 28.92-24.15 46.6-31.24z" fill="#26bfa6"/><path d="m292.002 87.75c-11.25 1.45-23.28 2.25-36 2.25-12.24 0-24.34-.79-35.99-2.31 4.66-18.09 18.84-57.69 35.99-57.69 17.09 0 31.18 39.03 36 57.75z" fill="#26bfa6"/><path d="m352.762 70.94c-9.03 4.3-19.5 8.11-31.25 11.17-3.581-14.337-8.636-29.413-15.39-42.46 17.7 7.1 33.55 17.84 46.64 31.29z" fill="#149084"/><path d="m184.762 218.51c-15.247 3.832-30.503 9.227-44.21 16.4-12.4-20.4-19.55-44.34-19.55-69.91 0-25.61 7.17-49.57 19.59-69.99 12.86 6.76 27.77 12.34 44.17 16.49-2.47 16.97-3.76 35.02-3.76 53.5 0 18.49 1.29 36.54 3.76 53.51z" fill="#26bfa6"/><path d="m205.882 290.35c-17.7-7.1-33.55-17.84-46.64-31.29 9.06-4.3 19.55-8.1 31.26-11.15 3.542 14.221 8.616 29.374 15.38 42.44z" fill="#26bfa6"/><path d="m292.002 242.25c-4.53 17.62-18.63 57.75-36 57.75-17.09 0-31.18-39.03-36-57.75 11.29-1.45 23.33-2.25 36-2.25 12.65 0 24.69.8 36 2.25z" fill="#26bfa6"/><path d="m352.792 259.03c-13.09 13.46-28.96 24.22-46.67 31.32 6.754-13.048 11.808-28.118 15.39-42.46 11.7 3.04 22.2 6.83 31.28 11.14z" fill="#149084"/><path d="m301.002 165c0 16.59-1.1 32.7-3.22 47.81-13.49-1.85-27.52-2.81-41.78-2.81-14.19 0-28.23.97-41.77 2.83-2.13-15.11-3.23-31.23-3.23-47.83 0-16.59 1.1-32.7 3.22-47.81 13.36 1.84 27.36 2.81 41.78 2.81 14.41 0 28.42-.96 41.78-2.79 2.12 15.1 3.22 31.21 3.22 47.79z" fill="#26bfa6"/><g fill="#149084"><path d="m292.002 87.75c-11.25 1.45-23.28 2.25-36 2.25v-60c17.09 0 31.18 39.03 36 57.75z"/><path d="m256.002 240c12.65 0 24.69.8 36 2.25-4.53 17.62-18.63 57.75-36 57.75z"/><path d="m301.002 165c0 16.59-1.1 32.7-3.22 47.81-13.49-1.85-27.52-2.81-41.78-2.81v-90c14.41 0 28.42-.96 41.78-2.79 2.12 15.1 3.22 31.21 3.22 47.79z"/><path d="m391.002 165c0 25.58-7.15 49.51-19.55 69.92-13.681-7.206-29.17-12.648-44.21-16.44 2.47-16.97 3.76-35.01 3.76-53.48 0-18.46-1.29-36.49-3.75-53.45 16.4-4.14 31.33-9.71 44.2-16.47 12.4 20.41 19.55 44.34 19.55 69.92z"/></g></g></g></svg>