<svg id="Capa_1" enable-background="new 0 0 512 512" height="512" viewBox="0 0 512 512" width="512" xmlns="http://www.w3.org/2000/svg"><g><path d="m211 167-15-167h-60l-15 167v150l15 165h60l15-165z" fill="#613d5c"/><g><path d="m376 512c-8.284 0-15-6.716-15-15v-30c0-8.284 6.716-15 15-15s15 6.716 15 15v30c0 8.284-6.716 15-15 15z" fill="#613d5c"/></g><path d="m136 167-37.5-15-37.5 15v150l37.5 29 37.5-29z" fill="#fff7cc"/><path d="m451 167v150l-127.5 22.31-67.5-11.81-60-10.5v-150l60-9.88 67.5-11.12z" fill="#fff7cc"/><path d="m451 167v150l-127.5 22.31-67.5-11.81v-170.38l67.5-11.12z" fill="#ffe6b3"/><path d="m451 15v152h-255v-167h240c8.28 0 15 6.72 15 15z" fill="#ff641a"/><path d="m451 15v152h-195v-167h180c8.28 0 15 6.72 15 15z" fill="#f03800"/><g fill="#ff641a"><path d="m136 0h-30c-24.813 0-45 20.187-45 45v122h75z"/><path d="m61 317v120c0 24.813 20.187 45 45 45h30v-165z"/><path d="m451 317v150c0 8.28-6.72 15-15 15h-240v-165z"/></g><path d="m451 317v150c0 8.28-6.72 15-15 15h-180v-165z" fill="#f03800"/></g></svg>